<svg width="20" height="21" viewBox="0 0 20 21" fill="none" xmlns="http://www.w3.org/2000/svg">
<g clip-path="url(#clip0_102_128)">
<path d="M18.1999 4.64983L17.8745 5.56479C17.8606 5.60397 17.833 5.63503 17.7982 5.65069L16.9853 6.01694C16.8704 6.0687 16.8704 6.25167 16.9853 6.30338L17.7982 6.66964C17.833 6.6853 17.8606 6.71635 17.8745 6.75553L18.1999 7.67049C18.2459 7.79975 18.4084 7.79975 18.4544 7.67049L18.7798 6.75553C18.7937 6.71635 18.8213 6.6853 18.8561 6.66964L19.669 6.30338C19.7838 6.25163 19.7838 6.06866 19.669 6.01694L18.8561 5.65069C18.8213 5.63503 18.7937 5.60397 18.7798 5.56479L18.4544 4.64983C18.4084 4.52057 18.2459 4.52057 18.1999 4.64983Z" fill="#121212"/>
<path d="M14.1598 0.818658L13.9184 1.49733C13.9081 1.52639 13.8877 1.5494 13.8618 1.56104L13.2588 1.83272C13.1736 1.87112 13.1736 2.00682 13.2588 2.04522L13.8618 2.3169C13.8877 2.32854 13.9081 2.35155 13.9184 2.38061L14.1598 3.05932C14.1939 3.15522 14.3145 3.15522 14.3486 3.05932L14.59 2.38061C14.6003 2.35155 14.6208 2.32854 14.6466 2.3169L15.2496 2.04522C15.3348 2.00682 15.3348 1.87112 15.2496 1.83272L14.6466 1.56104C14.6208 1.5494 14.6003 1.52639 14.59 1.49733L14.3486 0.818658C14.3145 0.72276 14.1939 0.72276 14.1598 0.818658Z" fill="#121212"/>
<path d="M0.254512 4.07164C0.163474 3.68983 0.399191 3.30651 0.781 3.21548C1.16281 3.12444 1.54613 3.36016 1.63716 3.74196C1.7282 4.12377 1.49248 4.50709 1.11068 4.59813C0.728868 4.68916 0.34555 4.45345 0.254512 4.07164Z" fill="#121212"/>
<path d="M17.5981 3.00701C17.4288 3.00701 17.2916 2.86979 17.2916 2.70053C17.2916 2.53126 17.4288 2.39404 17.5981 2.39404C17.7673 2.39404 17.9045 2.53126 17.9045 2.70053C17.9045 2.86979 17.7673 3.00701 17.5981 3.00701Z" fill="#121212"/>
<path d="M2.47392 6.75954C2.83825 5.61736 3.48356 4.62724 4.34431 3.86443L3.93642 3.15794C3.71903 2.78146 3.6613 2.3429 3.77384 1.92298C3.88634 1.50306 4.15563 1.15212 4.53212 0.934779C5.30931 0.486068 6.30657 0.753334 6.75528 1.53048L7.25427 2.39474C8.41825 2.1463 9.63876 2.22857 10.8055 2.6481C12.4814 3.25076 13.8458 4.47712 14.6474 6.10138C14.6506 6.1079 14.6578 6.12294 14.6688 6.14579C14.9852 6.80583 15.6297 8.09927 16.3901 9.3463C17.049 10.4268 17.5529 11.0733 17.926 11.4595C18.5413 11.2928 19.2104 11.5785 19.5029 12.1714L19.5184 12.2027C19.6793 12.5289 19.7036 12.8982 19.5868 13.2426C19.47 13.5871 19.226 13.8654 18.8999 14.0264L12.7343 17.069C12.905 17.4083 13.0014 17.7911 13.0014 18.1961C13.0014 19.5861 11.8706 20.717 10.4806 20.717C9.48603 20.717 8.62466 20.1378 8.21478 19.2992L6.58044 20.1057C6.38724 20.2011 6.18216 20.2462 5.98001 20.2462C5.47767 20.2462 4.99368 19.9674 4.75681 19.4873L4.74122 19.4558C4.46919 18.9045 4.6061 18.2563 5.03411 17.857C4.95587 17.287 4.73825 16.4083 4.23208 15.0602C3.61122 13.4068 2.88474 11.924 2.87751 11.9094C2.07603 10.2852 1.93266 8.45626 2.47392 6.75954ZM6.06915 1.92654C5.95759 1.73333 5.77751 1.59513 5.562 1.5374C5.49005 1.5181 5.417 1.50857 5.34446 1.50857C5.19974 1.50857 5.05688 1.54654 4.92821 1.62083C4.73501 1.7324 4.59681 1.91247 4.53907 2.12798C4.48134 2.34349 4.51099 2.56857 4.62251 2.76177L4.97521 3.37267C5.2229 3.20353 5.48372 3.05044 5.7572 2.91552C5.98954 2.80087 6.22673 2.70146 6.46755 2.61658L6.06915 1.92654ZM10.4806 19.9248C11.4337 19.9248 12.2092 19.1493 12.2092 18.1961C12.2092 17.9169 12.1424 17.6531 12.0242 17.4194L8.92563 18.9485C9.20571 19.5257 9.79704 19.9248 10.4806 19.9248ZM5.45169 19.1051L5.46727 19.1367C5.60618 19.4182 5.94829 19.5343 6.22989 19.3953L18.5493 13.316C18.6857 13.2486 18.7877 13.1323 18.8365 12.9882C18.8854 12.8442 18.8752 12.6897 18.8078 12.5532L18.7924 12.5219C18.6534 12.2403 18.3113 12.1242 18.0297 12.2632L5.71036 18.3425C5.42884 18.4815 5.31278 18.8236 5.45169 19.1051ZM3.58798 11.5588C3.59532 11.5737 4.33895 13.0912 4.9736 14.7813C5.40704 15.9356 5.64903 16.7899 5.76841 17.4305L17.1669 11.8056C16.7651 11.3519 16.2867 10.6985 15.7137 9.7588C14.9352 8.48216 14.2773 7.16177 13.9543 6.48833C13.9454 6.46966 13.9395 6.45736 13.9368 6.45197C13.2266 5.01263 12.0193 3.92646 10.5374 3.39361C9.06064 2.86255 7.48751 2.94505 6.10782 3.62595C4.72814 4.30677 3.70567 5.50513 3.22872 7.00025C2.75013 8.5006 2.87774 10.1195 3.58798 11.5588Z" fill="#121212"/>
<path d="M12.0589 6.50206C12.1465 6.50206 12.2345 6.47323 12.3078 6.41389C12.4779 6.27628 12.5043 6.02686 12.3667 5.85679C11.9956 5.39807 11.5573 5.00214 11.064 4.67999C10.8808 4.56034 10.6353 4.6119 10.5157 4.79511C10.3961 4.97831 10.4476 5.22374 10.6308 5.34335C11.0549 5.62026 11.4317 5.96065 11.7508 6.35503C11.829 6.45179 11.9434 6.50206 12.0589 6.50206Z" fill="#121212"/>
<path d="M9.6412 4.82813C9.80781 4.82813 9.96281 4.7222 10.0175 4.55528C10.0857 4.34739 9.97238 4.12364 9.76449 4.05548C9.61398 4.00614 9.45921 3.96286 9.30449 3.92681C9.09144 3.87712 8.87843 4.00958 8.82882 4.22267C8.77917 4.43571 8.91163 4.64868 9.12468 4.69837C9.25687 4.72919 9.38913 4.76614 9.51769 4.80829C9.55871 4.82173 9.60031 4.82813 9.6412 4.82813Z" fill="#121212"/>
</g>
<defs>
<clipPath id="clip0_102_128">
<rect width="20" height="19.9155" fill="white" transform="matrix(-1 0 0 1 20 0.716949)"/>
</clipPath>
</defs>
</svg>
