<svg width="20" height="21" viewBox="0 0 20 21" fill="none" xmlns="http://www.w3.org/2000/svg">
<g clip-path="url(#clip0_102_139)">
<path d="M1.81678 11.8479C1.98006 11.4537 2.34654 11.2088 2.77318 11.2088H3.51525V0.896332C3.51525 0.680629 3.69014 0.505707 3.90588 0.505707H8.24181C8.45756 0.505707 8.63244 0.680629 8.63244 0.896332C8.63244 1.11203 8.45756 1.28696 8.24181 1.28696H4.2965V11.5995C4.2965 11.8152 4.12162 11.9901 3.90588 11.9901H2.77318C2.62002 11.9901 2.55807 12.0997 2.53853 12.1469C2.519 12.194 2.48529 12.3154 2.59357 12.4236L9.82006 19.6501C9.91904 19.7491 10.0802 19.7491 10.1792 19.6501L17.4056 12.4236C17.5139 12.3154 17.4802 12.194 17.4607 12.1469C17.4411 12.0997 17.3792 11.9901 17.226 11.9901H16.0934C15.8776 11.9901 15.7028 11.8152 15.7028 11.5995V1.28696H11.7574C11.5417 1.28696 11.3668 1.11203 11.3668 0.896332C11.3668 0.680629 11.5417 0.505707 11.7574 0.505707H16.0934C16.3091 0.505707 16.484 0.680629 16.484 0.896332V11.2088H17.2261C17.6528 11.2088 18.0192 11.4537 18.1825 11.8479C18.3458 12.2421 18.2598 12.6743 17.9581 12.9761L10.7317 20.2025C10.5361 20.398 10.2762 20.5057 9.99963 20.5057C9.7231 20.5057 9.46314 20.398 9.2676 20.2025L2.04115 12.9761C1.73951 12.6744 1.6535 12.2421 1.81678 11.8479Z" fill="#121212"/>
<path d="M11.245 7.94272C11.19 7.96944 11.1319 7.98205 11.0747 7.98205C10.9298 7.98205 10.7906 7.90108 10.723 7.76198L8.57362 3.33596C8.47936 3.1419 8.5603 2.90819 8.75436 2.81397C8.94854 2.71963 9.18217 2.80065 9.27639 2.99471L11.4258 7.42073C11.52 7.61475 11.4391 7.8485 11.245 7.94272Z" fill="#121212"/>
<path d="M7.99145 5.64143C8.68071 5.64143 9.24146 6.20218 9.24146 6.89143C9.24146 7.58069 8.68071 8.14143 7.99145 8.14143C7.30219 8.14143 6.74145 7.58069 6.74145 6.89143C6.74145 6.20218 7.30219 5.64143 7.99145 5.64143ZM7.99145 7.36018C8.24993 7.36018 8.4602 7.14991 8.4602 6.89143C8.4602 6.63296 8.24993 6.42268 7.99145 6.42268C7.73297 6.42268 7.5227 6.63296 7.5227 6.89143C7.5227 7.14991 7.73297 7.36018 7.99145 7.36018Z" fill="#121212"/>
<path d="M13.2581 3.8653C13.2581 4.55455 12.6973 5.1153 12.0081 5.1153C11.3188 5.1153 10.7581 4.55455 10.7581 3.8653C10.7581 3.17604 11.3188 2.6153 12.0081 2.6153C12.6973 2.6153 13.2581 3.17604 13.2581 3.8653ZM11.5393 3.8653C11.5393 4.12377 11.7496 4.33405 12.0081 4.33405C12.2665 4.33405 12.4768 4.12377 12.4768 3.8653C12.4768 3.60682 12.2665 3.39655 12.0081 3.39655C11.7496 3.39655 11.5393 3.60682 11.5393 3.8653Z" fill="#121212"/>
<path d="M8.43728 10.9127C8.22153 10.9127 8.04665 10.7378 8.04665 10.5221C8.04665 10.3064 8.22153 10.1314 8.43728 10.1314H9.69458C9.91032 10.1314 10.0852 10.3064 10.0852 10.5221V13.6242C10.0852 13.8399 9.91032 14.0148 9.69458 14.0148C9.47884 14.0148 9.30396 13.8399 9.30396 13.6242V12.4344H8.53716C8.32142 12.4344 8.14653 12.2594 8.14653 12.0437C8.14653 11.828 8.32142 11.6531 8.53716 11.6531H9.30396V10.9127H8.43728Z" fill="#121212"/>
<path d="M12.8196 10.1201C13.8965 10.1201 14.7727 10.9962 14.7727 12.0732C14.7727 13.1501 13.8965 14.0263 12.8196 14.0263C11.7426 14.0263 10.8665 13.1501 10.8665 12.0732C10.8665 10.9962 11.7426 10.1201 12.8196 10.1201ZM12.8196 13.2451C13.4658 13.2451 13.9915 12.7194 13.9915 12.0732C13.9915 11.427 13.4658 10.9013 12.8196 10.9013C12.1734 10.9013 11.6477 11.427 11.6477 12.0732C11.6477 12.7194 12.1734 13.2451 12.8196 13.2451Z" fill="#121212"/>
<path d="M5.61769 10.9127C5.40195 10.9127 5.22707 10.7378 5.22707 10.5221C5.22707 10.3064 5.40195 10.1314 5.61769 10.1314H6.875C7.09074 10.1314 7.26562 10.3064 7.26562 10.5221V13.6242C7.26562 13.8399 7.09074 14.0148 6.875 14.0148C6.65926 14.0148 6.48437 13.8399 6.48437 13.6242V12.4344H5.71758C5.50183 12.4344 5.32695 12.2594 5.32695 12.0437C5.32695 11.828 5.50183 11.6531 5.71758 11.6531H6.48437V10.9127H5.61769Z" fill="#121212"/>
<path d="M10 1.28696C9.89727 1.28696 9.79648 1.24516 9.72383 1.17246C9.65117 1.09985 9.60938 0.999066 9.60938 0.896332C9.60938 0.793597 9.65117 0.692816 9.72383 0.62016C9.79648 0.547504 9.89727 0.505707 10 0.505707C10.1027 0.505707 10.2035 0.547465 10.2762 0.62016C10.3488 0.692816 10.3906 0.793597 10.3906 0.896332C10.3906 0.999066 10.3488 1.09985 10.2762 1.17246C10.2035 1.24516 10.1027 1.28696 10 1.28696Z" fill="#121212"/>
</g>
<defs>
<clipPath id="clip0_102_139">
<rect width="20" height="19.9155" fill="white" transform="matrix(-1 0 0 1 20 0.505707)"/>
</clipPath>
</defs>
</svg>
