<svg width="20" height="21" viewBox="0 0 20 21" fill="none" xmlns="http://www.w3.org/2000/svg">
<g clip-path="url(#clip0_102_92)">
<path d="M0.0527744 11.0294C1.71853 8.0475 4.45694 6.22413 7.66661 5.88624C9.2758 3.8538 14.3251 3.33892 14.543 3.31771C14.685 3.30306 14.8279 3.36489 14.9149 3.48048C15.0024 3.59525 15.024 3.7474 14.9719 3.88209C14.4768 5.16709 13.9697 6.6287 13.8355 7.22668C14.7524 7.64625 15.5538 8.09242 16.0705 8.46422C17.1912 6.6714 19.4787 6.64902 19.5833 6.64902C19.8136 6.64902 20 6.83538 20 7.0657C20 9.47985 19.1585 10.6916 18.5958 11.2324C19.1585 11.7731 20 12.9849 20 15.3991C20 15.6294 19.8136 15.8157 19.5833 15.8157C19.4787 15.8157 17.1911 15.7934 16.0705 14.0005C15.3841 14.4945 14.1972 15.1192 12.9002 15.6385C13.1868 16.102 13.3333 16.8393 13.3333 17.8991C13.3333 18.1294 13.1469 18.3158 12.9166 18.3158C12.7927 18.3158 9.95924 18.2912 8.54814 16.636C4.95944 16.5666 1.86927 14.6871 0.0527744 11.4354C-0.0176163 11.3093 -0.0176163 11.1555 0.0527744 11.0294ZM13.9489 4.23041C12.5489 4.43306 10.2504 4.93166 8.9515 5.82413C10.1492 5.87093 11.6773 6.32374 13.0626 6.89195C13.247 6.15952 13.6563 5.01526 13.9489 4.23041ZM12.4902 17.4584C12.4347 16.2994 12.1673 16.0032 12.0923 15.9425C11.2803 16.2275 10.4577 16.454 9.71068 16.5677C10.6146 17.2037 11.8467 17.4016 12.4902 17.4584ZM12.1407 15.9272L12.1405 15.9261C12.1394 15.9265 12.1382 15.9268 12.1371 15.9272C12.1394 15.9269 12.1382 15.9276 12.1407 15.9272ZM8.74993 15.8157C11.1848 15.8157 15.166 13.8166 15.9033 13.0622C15.9822 12.9812 16.0901 12.9369 16.2011 12.9369C16.2264 12.9369 16.252 12.9394 16.2772 12.9438C16.4136 12.9691 16.5287 13.061 16.5837 13.1884C17.146 14.4925 18.4684 14.8485 19.1557 14.9458C19.0255 12.3347 17.7897 11.6369 17.7262 11.6031C17.5891 11.5327 17.5045 11.3906 17.5024 11.2365C17.5004 11.0806 17.5879 10.9354 17.7258 10.8621C17.7816 10.8324 19.0247 10.1395 19.1557 7.52144C18.4689 7.62195 17.1415 7.98328 16.5837 9.27641C16.5287 9.40376 16.4136 9.49575 16.2772 9.52095C16.1397 9.54657 16.0001 9.50181 15.9033 9.40255C15.166 8.64813 11.1848 6.64902 8.74993 6.64902C5.46011 6.64902 2.61056 8.31609 0.896687 11.2324C2.61056 14.1487 5.46011 15.8157 8.74993 15.8157Z" fill="#121212"/>
<path d="M7.50041 11.2323C7.50041 9.31502 6.74397 8.14068 6.73623 8.12888C6.6101 7.93681 6.66299 7.67884 6.85424 7.55188C7.04549 7.42575 7.30346 7.47743 7.43041 7.66786C7.46745 7.72321 8.33374 9.04806 8.33374 11.2323C8.33374 13.4166 7.46745 14.7415 7.43041 14.7968C7.35026 14.9172 7.21799 14.9824 7.08334 14.9824C7.00401 14.9824 6.92385 14.9596 6.85264 14.9124C6.661 14.7846 6.60932 14.5262 6.73709 14.3345C6.74479 14.3232 7.50041 13.1672 7.50041 11.2323Z" fill="#121212"/>
<path d="M8.52025 7.55191C8.7119 7.42578 8.96909 7.47746 9.09643 7.66789C9.13346 7.72321 9.99976 9.04809 9.99976 11.2323C9.99976 12.3989 9.74831 13.3157 9.5371 13.8792C9.47444 14.0464 9.31573 14.1498 9.14686 14.1498C9.09842 14.1498 9.04881 14.1412 9.00077 14.1234C8.7851 14.0428 8.67604 13.8027 8.75662 13.5871C8.94338 13.0878 9.16639 12.274 9.16639 11.2323C9.16639 9.31501 8.40994 8.14067 8.40221 8.12887C8.27611 7.93684 8.329 7.67887 8.52025 7.55191Z" fill="#121212"/>
<path d="M4.99993 10.8156C4.53969 10.8156 4.1666 10.4425 4.1666 9.98228C4.1666 9.52205 4.53969 9.14896 4.99993 9.14896C5.46016 9.14896 5.83325 9.52205 5.83325 9.98228C5.83325 10.4425 5.46016 10.8156 4.99993 10.8156Z" fill="#121212"/>
</g>
<defs>
<clipPath id="clip0_102_92">
<rect width="20" height="19.9155" fill="white" transform="matrix(-1 0 0 1 20 0.815704)"/>
</clipPath>
</defs>
</svg>
