<svg width="20" height="21" viewBox="0 0 20 21" fill="none" xmlns="http://www.w3.org/2000/svg">
<path d="M0.121876 8.8718C0.138126 8.78282 0.184729 8.70219 0.25383 8.64376C0.900703 8.09653 1.00992 7.49313 1.0977 7.00833L1.10918 6.94516C1.13949 6.77969 1.27238 6.65219 1.43895 6.62876C1.49645 6.62067 1.55731 6.61653 1.61984 6.61653C1.9916 6.61653 2.51535 6.77317 2.84742 7.12305C2.90406 7.18278 2.94043 7.25887 2.95129 7.34047C2.97922 7.5504 2.9936 7.74251 3.00625 7.912C3.0541 8.55071 3.09641 8.61844 3.29098 8.68001C3.41293 8.7186 3.50824 8.81442 3.54617 8.93653C3.72942 9.52645 3.97258 10.091 4.26688 10.6236C4.41223 10.3461 4.57285 10.0965 4.72235 9.86422C5.08797 9.29618 5.3768 8.84743 5.27813 8.29129C4.95836 6.48879 5.12067 5.13098 5.76066 4.25551C6.11707 3.76797 6.62481 3.43559 7.24184 3.28032C7.11902 2.32204 6.45309 1.88758 6.08445 1.78879C5.87606 1.73297 5.75238 1.51876 5.80824 1.31036C5.8641 1.102 6.07832 0.978209 6.28664 1.03415C7.04777 1.23809 7.86078 1.9868 8.01606 3.18266C8.63949 3.1809 9.2057 3.37129 9.67164 3.74356C10.523 4.42383 11.0375 5.68797 11.2006 7.50079C11.2497 8.04629 11.6026 8.36458 12.0911 8.80501C12.4898 9.16454 12.9339 9.56594 13.2897 10.1728C13.7329 9.99231 14.2083 9.87524 14.7047 9.83286C14.564 8.91286 13.9169 8.49278 13.5554 8.39594C13.347 8.34012 13.2234 8.1259 13.2792 7.91754C13.3351 7.70915 13.5493 7.5854 13.7576 7.64133C13.9539 7.69391 14.1536 7.78317 14.3446 7.90653C14.4335 7.4679 14.6485 7.05649 14.974 6.73098C15.4102 6.29481 15.9902 6.05462 16.607 6.05462C16.8089 6.05462 17.01 6.08098 17.2048 6.13294C17.3398 6.16899 17.4453 6.2745 17.4814 6.40954C17.6936 7.2043 17.4645 8.05907 16.8834 8.64028C16.479 9.04461 15.9509 9.28016 15.3845 9.31247C15.4339 9.47411 15.4706 9.64614 15.492 9.82856C18.0095 10.0177 20 12.1265 20 14.6915C20 17.3805 17.8123 19.5682 15.1233 19.5682C14.1239 19.5682 13.172 19.2711 12.357 18.7077C12.2287 18.764 12.0999 18.8182 11.9705 18.8693C10.7949 19.333 9.60676 19.5681 8.43922 19.5681C6.56125 19.5681 4.81828 18.9545 3.39875 17.7936C1.91504 16.5802 0.821526 14.7848 0.236525 12.6015C0.0456257 11.8893 -0.122772 10.2115 0.121876 8.8718ZM11.5679 9.38524C11.0424 8.91141 10.4991 8.42145 10.4225 7.57087C10.2792 5.97848 9.8625 4.89614 9.18395 4.35399C8.78113 4.03215 8.28324 3.90805 7.70395 3.98547C7.13184 4.06184 6.6902 4.30782 6.39133 4.71665C5.88196 5.41344 5.76621 6.57024 6.04738 8.15485C6.19961 9.0127 5.78258 9.66055 5.3793 10.2871C5.15328 10.6382 4.92063 11.0003 4.76242 11.4217C6.07895 13.3229 8.07664 14.7093 10.2748 15.217C10.2561 15.0427 10.2465 14.8672 10.2465 14.6915C10.2465 12.9294 11.186 11.3826 12.5903 10.5256C12.298 10.0445 11.928 9.71001 11.5679 9.38524ZM16.331 8.08782C16.6592 7.75961 16.8177 7.29942 16.7698 6.84442C16.7158 6.83872 16.6616 6.83579 16.6071 6.83579C16.1989 6.83579 15.8152 6.99473 15.5266 7.28333C15.1984 7.61153 15.0398 8.07176 15.0877 8.52672C15.1417 8.53243 15.196 8.53532 15.2503 8.53532H15.2504C15.6587 8.53536 16.0424 8.37641 16.331 8.08782ZM15.1233 18.7869C17.3816 18.7869 19.2188 16.9497 19.2188 14.6915C19.2188 12.4332 17.3816 10.596 15.1233 10.596C12.865 10.596 11.0278 12.4332 11.0278 14.6915C11.0278 14.9166 11.0462 15.1414 11.0826 15.3625C11.3339 15.3949 11.5869 15.4155 11.8411 15.4242C11.7875 15.1846 11.7596 14.9398 11.7596 14.6915C11.7596 14.2515 11.8442 13.8221 12.0111 13.4151C12.093 13.2156 12.3211 13.12 12.5208 13.2019C12.7204 13.2838 12.8158 13.512 12.7339 13.7116C12.6058 14.024 12.5408 14.3537 12.5408 14.6915C12.5408 14.9371 12.5756 15.1784 12.6437 15.412C13.2027 15.376 13.7626 15.2836 14.3143 15.1358C14.4266 15.1057 14.5466 15.1273 14.6415 15.1946C14.9887 15.4411 15.3386 15.7511 15.5461 16.3456C15.5996 16.4988 15.5528 16.6691 15.4285 16.7735C14.7109 17.3763 13.9612 17.8872 13.1889 18.302C13.7801 18.6204 14.4383 18.7869 15.1233 18.7869ZM0.991135 12.3993C2.06289 16.399 4.84719 18.7869 8.43918 18.7869C10.5361 18.7869 12.7496 17.9272 14.7006 16.3604C14.5972 16.1748 14.4693 16.047 14.332 15.9379C13.5984 16.1189 12.8525 16.2106 12.1118 16.2106C10.0153 16.2106 7.99387 15.4961 6.26598 14.1445C5.3875 13.4574 4.62613 12.6294 4.01625 11.7113C4.00899 11.7014 4.00215 11.6913 3.99586 11.6808C3.51442 10.9504 3.12879 10.1634 2.85684 9.34501C2.30938 9.06954 2.26762 8.51157 2.22711 7.97032C2.21785 7.84661 2.20836 7.71973 2.19387 7.58587C2.08996 7.51063 1.95227 7.45106 1.81422 7.42044C1.71012 7.91712 1.5077 8.55465 0.868048 9.14336C0.687071 10.2942 0.818478 11.7549 0.991135 12.3993Z" fill="#86BC42"/>
<path d="M7.40206 4.78935C7.60088 4.70607 7.82991 4.79962 7.91335 4.99857C7.99679 5.19751 7.90315 5.42642 7.70417 5.50986C7.41999 5.629 7.26307 6.48646 7.51299 7.89478C7.55069 8.1072 7.40905 8.30998 7.19659 8.34767C7.1735 8.35178 7.15053 8.35377 7.12787 8.35377C6.94205 8.35377 6.77729 8.22064 6.74369 8.03135C6.52018 6.77197 6.45299 5.18724 7.40206 4.78935Z" fill="#86BC42"/>
<path d="M4.82045 15.9699C4.94986 15.7972 5.19513 15.7626 5.36771 15.8921C5.36787 15.8922 5.36955 15.8934 5.36966 15.8935C5.54365 16.0209 5.58072 16.2646 5.45349 16.4387C5.37712 16.5431 5.2583 16.5984 5.13787 16.5984C5.05763 16.5984 4.97666 16.5739 4.90705 16.523L4.8981 16.5164C4.72553 16.387 4.691 16.1425 4.82045 15.9699Z" fill="#86BC42"/>
<path d="M5.71619 16.6016C5.81451 16.4095 6.04983 16.3335 6.2419 16.4317C7.57889 17.1156 8.7069 17.0886 8.72354 17.0878C8.93827 17.0804 9.11968 17.2477 9.12811 17.4629C9.13655 17.6785 8.96866 17.8601 8.75307 17.8685C8.7471 17.8688 8.72608 17.8695 8.6912 17.8695C8.41202 17.8695 7.24846 17.8241 5.88612 17.1272C5.69404 17.029 5.61799 16.7936 5.71619 16.6016Z" fill="#86BC42"/>
<path d="M12.7329 12.325L12.7458 12.3121C12.8987 12.16 13.146 12.1606 13.2982 12.3136C13.4503 12.4666 13.4497 12.7139 13.2967 12.866L13.2883 12.8744C13.2119 12.9517 13.1113 12.9903 13.0106 12.9903C12.9114 12.9903 12.812 12.9527 12.7359 12.8774C12.5825 12.7257 12.5812 12.4784 12.7329 12.325Z" fill="#86BC42"/>
</svg>
