<svg width="20" height="21" viewBox="0 0 20 21" fill="none" xmlns="http://www.w3.org/2000/svg">
<g clip-path="url(#clip0_102_116)">
<path d="M2.95957 6.04801L5.51511 2.83607V1.41006C5.51511 0.763891 6.04081 0.23819 6.68698 0.23819H13.3121C13.9583 0.23819 14.484 0.763891 14.484 1.41006V2.83611L17.0396 6.04809C17.7206 6.90402 18.2026 7.62484 18.2026 9.1121V18.7027C18.2026 19.5494 17.5438 20.2382 16.7339 20.2382H3.26527C2.45543 20.2382 1.79653 19.5494 1.79653 18.7027V9.1121C1.79653 7.62484 2.2786 6.90402 2.95957 6.04801ZM2.57778 9.50272V17.1131H9.98415V9.50272H2.57778ZM2.59188 8.72148H9.99622C10.0744 7.49148 10.5287 6.82543 11.1472 6.04805L13.2834 3.36318H6.09413L3.57094 6.53445C3.02195 7.22445 2.6648 7.74468 2.59188 8.72148ZM13.7028 1.41006C13.7028 1.19467 13.5275 1.01944 13.3121 1.01944H6.68702C6.47163 1.01944 6.29639 1.19467 6.29639 1.41006V2.58193H13.7028V1.41006ZM16.4282 6.53449L14.0934 3.59997L11.7586 6.53449C11.2096 7.22445 10.8525 7.74468 10.7795 8.72148H12.2506C12.4663 8.72148 12.6413 8.8964 12.6413 9.1121C12.6413 9.3278 12.4663 9.50272 12.2506 9.50272H10.7654V17.1131H17.4214V9.50272H15.7662C15.5505 9.50272 15.3756 9.3278 15.3756 9.1121C15.3756 8.8964 15.5505 8.72148 15.7662 8.72148H17.4073C17.3344 7.74468 16.9772 7.22445 16.4282 6.53449ZM17.4214 18.7026V17.8944H10.7654V19.4569H16.7339C17.113 19.4569 17.4214 19.1186 17.4214 18.7026ZM3.26527 19.4569H9.98415V17.8944H2.57778V18.7026C2.57778 19.1186 2.88621 19.4569 3.26527 19.4569Z" fill="#121212"/>
<path d="M6.2815 15.2923C5.18732 15.2923 4.29712 14.4021 4.29712 13.3079C4.29712 12.2137 5.18732 11.3235 6.2815 11.3235C7.37567 11.3235 8.26587 12.2137 8.26587 13.3079C8.26587 14.4021 7.37564 15.2923 6.2815 15.2923ZM6.2815 12.1048C5.6181 12.1048 5.07837 12.6445 5.07837 13.3079C5.07837 13.9713 5.61806 14.5111 6.2815 14.5111C6.94493 14.5111 7.48462 13.9713 7.48462 13.3079C7.48462 12.6445 6.94489 12.1048 6.2815 12.1048Z" fill="#121212"/>
<path d="M14.0081 9.50279C13.7924 9.50279 13.6175 9.32787 13.6175 9.11217C13.6175 8.89646 13.7924 8.72154 14.0081 8.72154H14.0085C14.2242 8.72154 14.3989 8.89646 14.3989 9.11217C14.3989 9.32787 14.2239 9.50279 14.0081 9.50279Z" fill="#121212"/>
</g>
<defs>
<clipPath id="clip0_102_116">
<rect width="20" height="19.9155" fill="white" transform="matrix(-1 0 0 1 20 0.23819)"/>
</clipPath>
</defs>
</svg>
