<svg width="20" height="20" viewBox="0 0 20 20" fill="none" xmlns="http://www.w3.org/2000/svg">
<g clip-path="url(#clip0_119_2886)">
<path d="M4.375 8.125C4.375 6.63316 4.96763 5.20242 6.02252 4.14752C7.07742 3.09263 8.50816 2.5 10 2.5C11.4918 2.5 12.9226 3.09263 13.9775 4.14752C15.0324 5.20242 15.625 6.63316 15.625 8.125C15.625 10.4325 13.7787 13.44 10 17.0425C6.22125 13.44 4.375 10.4325 4.375 8.125ZM10 18.75C14.5838 14.5837 16.875 11.0413 16.875 8.125C16.875 6.30164 16.1507 4.55295 14.8614 3.26364C13.572 1.97433 11.8234 1.25 10 1.25C8.17664 1.25 6.42795 1.97433 5.13864 3.26364C3.84933 4.55295 3.125 6.30164 3.125 8.125C3.125 11.0413 5.41625 14.5837 10 18.75Z" fill="black"/>
<path d="M10 8.75C9.66848 8.75 9.35054 8.6183 9.11612 8.38388C8.8817 8.14946 8.75 7.83152 8.75 7.5C8.75 7.16848 8.8817 6.85054 9.11612 6.61612C9.35054 6.3817 9.66848 6.25 10 6.25C10.3315 6.25 10.6495 6.3817 10.8839 6.61612C11.1183 6.85054 11.25 7.16848 11.25 7.5C11.25 7.83152 11.1183 8.14946 10.8839 8.38388C10.6495 8.6183 10.3315 8.75 10 8.75ZM10 10C10.663 10 11.2989 9.73661 11.7678 9.26777C12.2366 8.79893 12.5 8.16304 12.5 7.5C12.5 6.83696 12.2366 6.20107 11.7678 5.73223C11.2989 5.26339 10.663 5 10 5C9.33696 5 8.70107 5.26339 8.23223 5.73223C7.76339 6.20107 7.5 6.83696 7.5 7.5C7.5 8.16304 7.76339 8.79893 8.23223 9.26777C8.70107 9.73661 9.33696 10 10 10ZM3.25 13.75L1.25 18.75H6.875V17.5H13.125V18.75H18.75L16.75 13.75H3.25ZM4.59625 13.75H15.4037L16.9037 17.5H3.09625L4.59625 13.75Z" fill="black"/>
</g>
<defs>
<clipPath id="clip0_119_2886">
<rect width="20" height="20" fill="white" transform="matrix(-1 0 0 1 20 0)"/>
</clipPath>
</defs>
</svg>
