<svg width="20" height="20" viewBox="0 0 20 20" fill="none" xmlns="http://www.w3.org/2000/svg">
<g clip-path="url(#clip0_119_2921)">
<path d="M11.7564 16.4718C16.2977 16.4718 19.9923 12.7772 19.9923 8.23588C19.9923 3.69459 16.2977 0 11.7564 0C7.21514 0 3.52055 3.69459 3.52055 8.23588C3.52055 12.7772 7.21514 16.4718 11.7564 16.4718ZM11.7564 1.5613C15.4368 1.5613 18.431 4.5555 18.431 8.23588C18.431 11.9163 15.4368 14.9105 11.7564 14.9105C8.07604 14.9105 5.08185 11.9163 5.08185 8.23588C5.08185 4.5555 8.07604 1.5613 11.7564 1.5613ZM0.236227 19.7713C-0.0686169 19.4665 -0.0686169 18.9722 0.236227 18.6673L3.72965 15.1739C4.03453 14.869 4.52884 14.869 4.83368 15.1739C5.13853 15.4788 5.13853 15.9731 4.83368 16.2779L1.34027 19.7713C1.18784 19.9238 0.988035 20 0.788227 20C0.588419 20 0.388689 19.9238 0.236227 19.7713Z" fill="white"/>
</g>
<defs>
<clipPath id="clip0_119_2921">
<rect width="20" height="20" fill="white" transform="matrix(-1 0 0 1 20 0)"/>
</clipPath>
</defs>
</svg>
