<svg width="24" height="24" viewBox="0 0 24 24" fill="none" xmlns="http://www.w3.org/2000/svg">
<g clip-path="url(#clip0_119_2925)">
<path d="M0.0604954 20.5651C0.16601 20.0582 0.662369 19.7329 1.16942 19.8384C1.67632 19.9439 2.00168 20.4404 1.89612 20.9473C1.83532 21.2393 1.90774 21.5385 2.09468 21.7685C2.20296 21.9016 2.44442 22.125 2.84464 22.125H21.1547C21.5549 22.125 21.7963 21.9016 21.9046 21.7685C22.0916 21.5385 22.164 21.2393 22.1032 20.9473C21.1302 16.2741 17.0083 12.8603 12.2482 12.7452C12.1657 12.7484 12.0829 12.75 11.9997 12.75C11.9161 12.75 11.833 12.7484 11.7502 12.7452C8.39712 12.8256 5.29793 14.5239 3.4211 17.323C3.13278 17.7531 2.55045 17.8679 2.12032 17.5796C1.69029 17.2913 1.5754 16.7089 1.86378 16.2788C3.40207 13.9846 5.63581 12.3163 8.18271 11.478C6.63068 10.3142 5.62465 8.45986 5.62465 6.375C5.62465 2.85984 8.48445 0 11.9997 0C15.5149 0 18.3747 2.85984 18.3747 6.375C18.3747 8.46113 17.3674 10.3164 15.8137 11.4802C17.2372 11.9489 18.5729 12.6781 19.742 13.6397C21.8857 15.403 23.3762 17.8625 23.9388 20.5651C24.1152 21.412 23.9039 22.2818 23.3593 22.9515C22.8174 23.6178 22.0138 24 21.1547 24H2.84468C1.98551 24 1.18193 23.6178 0.640057 22.9515C0.0953693 22.2818 -0.115849 21.412 0.0604954 20.5651ZM16.4997 6.375C16.4997 3.89367 14.481 1.875 11.9997 1.875C9.51832 1.875 7.49965 3.89367 7.49965 6.375C7.49965 8.77992 9.39598 10.7503 11.7719 10.8693C11.8477 10.8679 11.9236 10.8672 11.9997 10.8672C12.0753 10.8672 12.151 10.8679 12.2265 10.8693C14.6029 10.7508 16.4997 8.78025 16.4997 6.375Z" fill="black"/>
</g>
<defs>
<clipPath id="clip0_119_2925">
<rect width="24" height="24" fill="white" transform="matrix(-1 0 0 1 24 0)"/>
</clipPath>
</defs>
</svg>
