<svg width="18" height="21" viewBox="0 0 18 21" fill="none" xmlns="http://www.w3.org/2000/svg">
<path d="M9 20.9282C11.2597 20.9282 13.3842 20.0482 14.9821 18.4503C16.58 16.8525 17.46 14.728 17.46 12.4682C17.46 10.9101 17.0389 9.39097 16.2423 8.075C16.1515 7.92504 15.9721 7.85387 15.8031 7.90105C15.6343 7.94816 15.5175 8.10203 15.5175 8.2773C15.5175 9.13039 14.8204 10.122 13.9216 10.122C13.0386 10.122 12.3202 9.40359 12.3202 8.52055C12.3202 8.21781 12.4026 7.92512 12.5585 7.67418C12.8454 7.22066 12.9979 6.69027 12.9979 6.14301C12.9979 4.60832 11.7985 3.34957 10.267 3.27629C9.65422 3.23933 9.17449 2.72933 9.17449 2.11433C9.17449 1.89992 9.22977 1.69418 9.33434 1.51933C9.41207 1.38933 9.4077 1.22613 9.32301 1.1005C9.23836 0.974841 9.08871 0.909567 8.93906 0.932849C8.2552 1.03922 7.6277 1.38738 7.17223 1.91324C6.71129 2.44535 6.45742 3.12582 6.45742 3.82929C6.45742 4.42871 6.63856 5.00699 6.98117 5.50168C6.98266 5.50379 6.9841 5.50586 6.98559 5.50793C7.20289 5.80875 7.3177 6.16258 7.3177 6.53109C7.3177 7.49137 6.53649 8.27258 5.57621 8.27258C4.63465 8.27258 3.86977 7.53793 3.835 6.60015C3.8293 6.44672 3.73426 6.3109 3.59207 6.25289C3.44992 6.195 3.28699 6.22566 3.17563 6.3314C2.35207 7.11355 1.70395 8.03566 1.24938 9.07207C0.778715 10.1451 0.540081 11.2878 0.540081 12.4683C0.540081 14.1112 1.01156 15.7043 1.90356 17.0756C2.02125 17.2564 2.26317 17.3076 2.44403 17.19C2.62485 17.0724 2.67606 16.8304 2.55848 16.6496C1.7491 15.4054 1.32133 13.9596 1.32133 12.4683C1.32133 10.5847 1.9875 8.81785 3.21137 7.42058C3.5691 8.38019 4.49172 9.05383 5.57621 9.05383C6.96723 9.05383 8.09895 7.92211 8.09895 6.53109C8.09895 5.99871 7.93383 5.48801 7.62141 5.05394C7.37098 4.69125 7.23863 4.26785 7.23863 3.82929C7.23863 3.01613 7.70832 2.28476 8.4025 1.9214C8.39633 1.98519 8.39324 2.04957 8.39324 2.11433C8.39324 3.14328 9.19715 3.99629 10.2235 4.05633C10.225 4.05644 10.2264 4.05652 10.2279 4.0566C11.3431 4.10898 12.2166 5.02547 12.2166 6.14301C12.2166 6.54219 12.106 6.9282 11.8966 7.25922C11.6621 7.63676 11.539 8.07199 11.539 8.52055C11.539 9.83441 12.6079 10.9033 13.9217 10.9033C14.557 10.9033 15.1618 10.6041 15.6248 10.061C15.7962 9.85988 15.9383 9.63515 16.0472 9.3975C16.4624 10.3582 16.6788 11.403 16.6788 12.4683C16.6787 16.7023 13.2341 20.147 9 20.147C7.56367 20.147 6.16324 19.748 4.95008 18.9934C4.76692 18.8794 4.52598 18.9356 4.41207 19.1187C4.29813 19.3019 4.35426 19.5428 4.53742 19.6568C5.87453 20.4886 7.4177 20.9282 9 20.9282Z" fill="#121212"/>
<path d="M10.0812 17.2531C10.1385 17.2531 10.1966 17.2405 10.2516 17.2138C10.4457 17.1196 10.5266 16.8858 10.4323 16.6918L8.28296 12.2658C8.18874 12.0717 7.95492 11.9908 7.76097 12.085C7.56691 12.1793 7.48597 12.413 7.58023 12.607L9.7296 17.033C9.7971 17.1722 9.93636 17.2531 10.0812 17.2531Z" fill="#121212"/>
<path d="M10.9061 13.9999C11.5954 13.9999 12.1562 13.4391 12.1562 12.7497C12.1562 12.0603 11.5954 11.4995 10.9061 11.4995C10.2167 11.4995 9.65582 12.0603 9.65582 12.7497C9.65582 13.4391 10.2166 13.9999 10.9061 13.9999ZM10.9061 12.2807C11.1646 12.2807 11.375 12.4911 11.375 12.7497C11.375 13.0083 11.1646 13.2187 10.9061 13.2187C10.6475 13.2187 10.4371 13.0083 10.4371 12.7497C10.4371 12.4911 10.6475 12.2807 10.9061 12.2807Z" fill="#121212"/>
<path d="M7.094 17.8121C7.78338 17.8121 8.34424 17.2513 8.34424 16.5619C8.34424 15.8725 7.78342 15.3116 7.094 15.3116C6.40466 15.3116 5.8438 15.8725 5.8438 16.5619C5.8438 17.2513 6.40466 17.8121 7.094 17.8121ZM7.094 16.0929C7.3526 16.0929 7.56299 16.3033 7.56299 16.5619C7.56299 16.8205 7.3526 17.0309 7.094 17.0309C6.83545 17.0309 6.62506 16.8205 6.62506 16.5619C6.62506 16.3033 6.83545 16.0929 7.094 16.0929Z" fill="#121212"/>
<path d="M3.36084 18.6309C3.46397 18.6309 3.56475 18.5892 3.63736 18.5165C3.71002 18.4438 3.75146 18.343 3.75146 18.2403C3.75146 18.1372 3.71002 18.0368 3.63736 17.9642C3.56475 17.8915 3.46397 17.8497 3.36084 17.8497C3.25807 17.8497 3.15772 17.8915 3.08502 17.9642C3.01197 18.0368 2.97022 18.1376 2.97022 18.2403C2.97022 18.343 3.01197 18.4438 3.08502 18.5165C3.15768 18.5892 3.25807 18.6309 3.36084 18.6309Z" fill="#121212"/>
</svg>
