<svg width="20" height="21" viewBox="0 0 20 21" fill="none" xmlns="http://www.w3.org/2000/svg">
<g clip-path="url(#clip0_102_83)">
<path d="M0.00408745 11.2701C0.0296364 10.2108 0.136238 9.22086 0.320875 8.3277C0.423986 7.82886 1.20118 7.98874 1.09791 8.48834C0.922832 9.33504 0.821747 10.2774 0.797308 11.2892C0.758627 12.8931 1.00809 14.2854 1.53872 15.4275C2.38684 17.2529 4.04541 18.4555 6.00581 18.8143C6.01596 18.8161 6.94836 18.9797 8.24562 18.7133C7.71163 18.3678 7.05175 17.8433 6.45419 17.0904C4.59488 14.7478 4.57592 11.6405 5.36081 8.87773C5.85553 7.13629 6.55889 5.41266 7.64648 3.95257C5.95852 3.09568 4.75984 3.42258 4.70874 3.43722C4.69728 3.44083 4.69287 3.4419 4.68113 3.44444C4.62499 3.45738 3.29389 3.7815 2.19606 5.56845C1.92723 6.00593 1.25386 5.58627 1.51999 5.15308C2.75564 3.14186 4.31427 2.71649 4.49538 2.673C4.6707 2.62444 6.17216 2.25866 8.15668 3.324C9.13581 2.21684 10.4826 1.20189 11.9955 1.04534C13.1219 0.928823 14.2482 1.35749 15.1759 1.9702C16.031 2.53498 16.8072 3.324 17.4827 4.31526C18.3147 5.53604 18.9967 7.07106 19.51 8.87765C20.2949 11.6404 20.2759 14.7477 18.4166 17.0903C17.2161 18.6028 15.7638 19.1944 15.5869 19.2624C13.6511 20.135 11.2259 20.015 9.28021 19.2609C8.1998 19.6074 7.00477 19.7907 5.87727 19.5972C3.68915 19.3441 1.74847 17.7419 0.831308 15.7877C0.240458 14.5289 -0.0378475 13.009 0.00408745 11.2701ZM15.2658 18.5369C15.2755 18.5323 15.2861 18.5279 15.2962 18.5242C15.3101 18.519 16.7055 17.9866 17.8182 16.5678C19.4948 14.43 19.4571 11.5952 18.7467 9.09462C17.6555 5.25369 15.9931 3.47932 14.7907 2.66717C13.791 1.99198 12.8616 1.81777 12.4818 1.81777C12.4711 1.81777 12.4608 1.81789 12.4509 1.81817C12.4406 1.81861 12.4302 1.81861 12.4199 1.81817C12.3782 1.81678 8.21353 1.73978 6.12411 9.09458C5.41365 11.5953 5.376 14.4299 7.05254 16.5677C8.16525 17.9866 9.56062 18.5189 9.5738 18.5238C11.328 19.1694 13.5218 19.3445 15.2658 18.5369Z" fill="#121212"/>
<path d="M8.09812 12.9984C8.09812 10.6066 10.044 8.66074 12.4358 8.66074C13.106 8.66074 13.7487 8.80956 14.3461 9.10302C14.8033 9.32761 14.4542 10.04 13.9963 9.81519C13.5086 9.57564 12.9836 9.45416 12.4358 9.45416C10.4815 9.45416 8.89158 11.0441 8.89158 12.9984C8.89158 14.9527 10.4815 16.5426 12.4358 16.5426C14.3901 16.5426 15.98 14.9527 15.98 12.9984C15.98 12.6416 15.9273 12.2897 15.8232 11.9524C15.6731 11.4656 16.4311 11.2311 16.5815 11.7185C16.7088 12.1316 16.7734 12.5623 16.7734 12.9984C16.7734 15.3902 14.8276 17.3361 12.4358 17.3361C10.044 17.3361 8.09812 15.3902 8.09812 12.9984Z" fill="#121212"/>
<path d="M15.7948 10.6286C15.7306 10.7852 15.5678 10.8847 15.3995 10.8726C15.2272 10.8603 15.0797 10.732 15.0419 10.5638C14.9641 10.218 15.3661 9.94874 15.6568 10.1529C15.8067 10.2582 15.8653 10.4593 15.7948 10.6286Z" fill="#121212"/>
<path d="M1.52041 6.63463C1.71457 6.92559 1.4461 7.31966 1.10361 7.24146C0.938924 7.20385 0.812168 7.06222 0.795823 6.89349C0.779875 6.72865 0.871281 6.56702 1.02109 6.49613C1.19565 6.41353 1.4142 6.47225 1.52041 6.63463Z" fill="#121212"/>
</g>
<defs>
<clipPath id="clip0_102_83">
<rect width="20" height="19.9155" fill="white" transform="matrix(-1 0 0 1 20 0.449432)"/>
</clipPath>
</defs>
</svg>
