<svg width="20" height="21" viewBox="0 0 20 21" fill="none" xmlns="http://www.w3.org/2000/svg">
<g clip-path="url(#clip0_102_89)">
<path d="M1.17758 12.0044C1.30105 11.8997 1.48586 11.9149 1.59051 12.0383C1.69515 12.1617 1.68 12.3466 1.55656 12.4512C0.922459 12.989 0.586796 13.591 0.585936 14.1919C0.58535 14.5954 0.73 14.9364 1.02816 15.2345C1.52672 15.7331 2.45441 16.1045 3.78547 16.3385C4.98035 16.5484 6.4768 16.6503 8.36172 16.6466C11.2718 16.6426 13.3247 16.3908 14.6092 15.8788C14.1144 15.5267 13.5851 15.1042 13.0174 14.6083C12.8456 14.8139 12.5992 14.9498 12.323 14.9777C11.7495 15.0356 11.2333 14.611 11.1779 14.034C11.1409 13.6482 11.1401 13.2597 11.175 12.8768C10.6607 12.3638 10.1969 11.8795 9.77992 11.4201C9.54508 11.8221 9.38336 12.2457 9.29859 12.684C9.22621 13.0574 9.20836 13.4441 9.24559 13.8332C9.30059 14.4098 8.87945 14.926 8.30453 14.984C7.73234 15.0418 7.22027 14.6204 7.1643 14.0395C7.10742 13.4497 7.13492 12.8595 7.24601 12.2851C7.3632 11.6801 7.57402 11.096 7.87359 10.5422C7.31101 10.5598 6.76074 10.6055 6.22957 10.6783C5.74047 11.2981 5.43883 11.973 5.33355 12.6861C5.27801 13.0624 5.27754 13.4494 5.33226 13.8362C5.41332 14.4098 5.0157 14.9444 4.44562 15.0281C3.88 15.1111 3.34363 14.7144 3.26199 14.1368C3.1789 13.549 3.17996 12.9581 3.26519 12.3807C3.31648 12.0334 3.39898 11.6897 3.5114 11.3532C3.22 11.4651 2.94223 11.5876 2.68074 11.7206C2.53875 11.7929 2.36109 11.7384 2.28679 11.5924C2.2134 11.4482 2.27082 11.2718 2.41504 11.1984C4.02508 10.379 6.25082 9.9274 8.53851 9.94872C8.38086 9.74443 8.23402 9.54533 8.09789 9.35115C7.2398 8.12708 6.82265 7.12396 6.82265 6.28451C6.82265 5.70732 7.02344 5.21439 7.41937 4.81955C8.24781 3.99333 9.65035 3.86314 11.3685 4.45287C13.0165 5.01849 14.7822 6.18576 16.3403 7.73958C18.5977 9.99083 20 12.6342 20 14.6382C20 15.4693 19.747 16.1609 19.2683 16.6383C18.8712 17.0342 18.3829 17.2322 17.8072 17.2321C17.1978 17.2321 16.4904 17.0103 15.6895 16.5668C15.5254 16.476 15.3568 16.3755 15.1839 16.2659C13.8479 16.9116 11.613 17.2281 8.36254 17.2325C6.50457 17.235 4.88574 17.1267 3.68406 16.9156C2.21168 16.6568 1.20742 16.2425 0.613865 15.6489C0.20574 15.2408 -0.000782013 14.7503 3.8147e-05 14.1911C0.00113106 13.4129 0.408318 12.6568 1.17758 12.0044ZM4.23242 11.1066C4.04398 11.5461 3.9132 12.0027 3.84476 12.4663C3.76773 12.9881 3.76683 13.5226 3.84211 14.0548C3.87812 14.3096 4.10976 14.4851 4.36078 14.4483C4.61262 14.4113 4.78812 14.1735 4.75207 13.9183C4.68949 13.4758 4.69012 13.0324 4.75391 12.6005C4.84644 11.9736 5.06992 11.375 5.41922 10.8132C5.00777 10.8942 4.61094 10.9922 4.23242 11.1066ZM11.7612 13.9781C11.784 14.2172 11.9795 14.3973 12.2163 14.3973C12.3613 14.3973 12.4928 14.3308 12.5796 14.2183C12.307 13.9707 12.0257 13.707 11.7357 13.427C11.7353 13.6106 11.7436 13.7947 11.7612 13.9781ZM7.82125 12.3963C7.72086 12.9155 7.69601 13.4494 7.7475 13.9835C7.77211 14.239 7.9957 14.4263 8.24789 14.4008C8.5009 14.3753 8.68676 14.1456 8.66226 13.889C8.61973 13.444 8.64027 13.0011 8.72328 12.5726C8.83226 12.0092 9.05062 11.4686 9.37281 10.9624C9.25004 10.8213 9.13172 10.6826 9.01816 10.5462C8.86469 10.5404 8.7098 10.5361 8.5541 10.5346C8.19379 11.1197 7.94734 11.7453 7.82125 12.3963ZM12.5919 5.63173C12.1482 5.80923 11.7332 6.03951 11.3574 6.31861C10.934 6.63314 10.5555 7.0104 10.2323 7.44001C10.0878 7.63204 10.1107 7.89685 10.2856 8.05599C10.4864 8.23876 10.8076 8.20579 10.9723 7.98685C11.2409 7.62974 11.5548 7.31669 11.9054 7.05638C12.4138 6.67872 12.9948 6.41353 13.6386 6.26326C13.2904 6.02978 12.9405 5.81861 12.5919 5.63173ZM18.3402 11.2789C17.8829 11.4369 17.4533 11.6503 17.0607 11.9154C16.6236 12.2107 16.2284 12.5706 15.8862 12.9854C15.7332 13.1709 15.744 13.4368 15.9115 13.6038C16.1036 13.7953 16.4257 13.7767 16.5999 13.5656C16.8844 13.2208 17.2121 12.9221 17.5739 12.6777C17.936 12.4331 18.336 12.2429 18.7656 12.1081C18.6402 11.8347 18.4982 11.5576 18.3402 11.2789ZM15.9734 16.0543C17.2932 16.7852 18.2357 16.8406 18.8545 16.2234C19.2258 15.8531 19.4141 15.3198 19.4141 14.6382C19.4141 14.0396 19.2661 13.3635 18.9936 12.6509C18.598 12.7695 18.2314 12.9408 17.9019 13.1633C17.5866 13.3762 17.3006 13.637 17.0519 13.9385C16.6591 14.4146 15.9326 14.4522 15.4978 14.0186C15.115 13.637 15.0877 13.0325 15.4343 12.6125C15.8123 12.1544 16.2491 11.7566 16.7327 11.4299C17.1344 11.1587 17.5707 10.9371 18.0331 10.767C17.793 10.3868 17.5255 10.0061 17.2328 9.63017C16.6343 9.66392 15.8152 9.81884 15.0598 10.3291C14.7445 10.542 14.4585 10.8028 14.2098 11.1042C13.8405 11.5518 13.1775 11.6176 12.7323 11.2536C12.2839 10.8871 12.2239 10.2244 12.5922 9.77822C12.8249 9.49615 13.0826 9.23435 13.3581 9.00009C13.4813 8.89533 13.6662 8.91021 13.7711 9.03349C13.8759 9.15673 13.8609 9.34165 13.7377 9.44646C13.4884 9.65845 13.255 9.89552 13.0442 10.1511C12.8805 10.3495 12.9069 10.6394 13.1033 10.8C13.3002 10.961 13.5939 10.9301 13.7579 10.7312C14.0424 10.3865 14.37 10.0878 14.7319 9.84345C15.3253 9.44263 16.0273 9.1847 16.787 9.08415C16.5546 8.81232 16.3096 8.54462 16.0531 8.28298C15.6187 8.38634 15.2037 8.53626 14.8177 8.73025C14.6755 8.80173 14.498 8.74638 14.4244 8.60005C14.3518 8.45548 14.41 8.27939 14.5546 8.20673C14.8759 8.04529 15.215 7.91208 15.5671 7.80712C15.1571 7.42208 14.7352 7.06517 14.3073 6.74068C13.5235 6.83318 12.8333 7.09708 12.2548 7.52673C11.9493 7.75361 11.6754 8.02693 11.4405 8.33912C11.0694 8.83244 10.3443 8.90162 9.89129 8.48939C9.49141 8.12548 9.43672 7.52294 9.76406 7.08779C10.121 6.6133 10.5396 6.19626 11.0081 5.84826C11.2899 5.63896 11.5912 5.45431 11.9086 5.29587C11.663 5.18638 11.4192 5.08982 11.1782 5.00708C10.5285 4.78408 9.93703 4.67322 9.42133 4.67322C8.75 4.67322 8.20726 4.86119 7.83301 5.23443C7.54734 5.51931 7.40848 5.86279 7.40848 6.28451C7.40848 6.98958 7.8018 7.90818 8.57758 9.01482C8.96531 9.5679 9.4523 10.2139 9.95328 10.7353C11.6989 12.5519 13.8133 14.858 15.9734 16.0543Z" fill="#121212"/>
</g>
<defs>
<clipPath id="clip0_102_89">
<rect width="20" height="19.9155" fill="white" transform="matrix(-1 0 0 1 20 0.660675)"/>
</clipPath>
</defs>
</svg>
