<svg width="105" height="86" viewBox="0 0 105 86" fill="none" xmlns="http://www.w3.org/2000/svg">
<path opacity="0.1" fill-rule="evenodd" clip-rule="evenodd" d="M104.987 40.0131C105.126 34.3152 104.156 28.5478 101.316 23.1279C99.1681 19.0282 95.9122 15.9013 92.587 12.8439C85.9367 6.65956 77.9701 3.04626 69.1722 1.37858C57.3955 -0.84499 46.3116 1.03115 36.7516 8.60519C29.7549 14.1641 24.7671 21.3212 22.204 30.0071C21.2341 33.2729 20.4721 36.6778 20.195 40.0826C19.433 48.282 21.3727 55.7866 25.5984 62.8742C31.8332 73.3667 40.9774 80.3848 52.3384 83.9286C65.7777 88.1673 78.455 86.0132 89.3311 76.4241C95.358 71.0736 99.9994 64.6114 102.563 56.8984C104.294 51.4784 105.056 45.989 104.987 40.0131Z" fill="#E68588"/>
<g clip-path="url(#clip0_5_165)">
<path d="M63.9465 59.2083L25.3516 20.3697L6.05445 39.789L44.6494 78.6282L63.9465 59.2083Z" fill="#E2F1A1"/>
<path d="M10.429 44.1917L40.2738 74.2255C42.6899 71.7941 46.6078 71.7941 49.0239 74.2255L59.5715 63.611C57.1549 61.1796 57.1549 57.2375 59.5715 54.8056L29.7261 24.7719C27.3101 27.2032 23.3927 27.2032 20.9761 24.7719L10.429 35.3863C12.8451 37.8177 12.8451 41.7598 10.429 44.1917Z" fill="#CBE558"/>
<path d="M63.9465 49.7757L25.3522 10.9365L6.05445 30.3564L44.6494 69.195L63.9465 49.7757Z" fill="#E2F1A1"/>
<path d="M10.4478 34.7778L40.2553 64.774C42.682 62.3318 46.6165 62.3318 49.0427 64.774L59.553 54.1971C57.1262 51.7556 57.1262 47.7962 59.553 45.3541L29.7455 15.358C27.3187 17.8001 23.3843 17.8001 20.9576 15.358L10.4478 25.9348C12.874 28.3764 12.874 32.3357 10.4478 34.7778Z" fill="#CBE558"/>
<path d="M28.344 40.0657C28.344 43.7654 31.324 46.7643 35 46.7643C38.6764 46.7643 41.6565 43.7654 41.6565 40.0657C41.6565 36.3665 38.6764 33.3676 35 33.3676C31.324 33.3676 28.344 36.3665 28.344 40.0657Z" fill="#E2F1A1"/>
<path d="M5.08728 38.8162L8.80701 35.0723L5.08728 31.3291C4.83094 31.0711 4.68674 30.7212 4.68674 30.3563C4.68674 29.9914 4.83094 29.6415 5.08728 29.3835L24.3845 9.96369C24.6408 9.70572 24.9885 9.56061 25.3516 9.56061C25.7143 9.56061 26.0619 9.70572 26.3183 9.96369L37.3642 21.0801C37.8983 21.617 37.8983 22.4882 37.3642 23.0256C36.8307 23.5631 35.965 23.5631 35.431 23.0256L29.6562 17.2148C28.4001 18.0909 26.9122 18.5643 25.3511 18.5643C23.7906 18.5643 22.3027 18.0909 21.0461 17.2148L12.2912 26.0251C14.0734 28.622 14.0734 32.0906 12.2912 34.6875L40.3448 62.9187C42.9254 61.1253 46.3722 61.1253 48.9528 62.9187L57.7076 54.1079C56.8371 52.8439 56.3666 51.3466 56.3666 49.7756C56.3666 48.2052 56.8371 46.7074 57.7076 45.4433L43.1716 30.8153C42.6376 30.2778 42.6376 29.4067 43.1716 28.8692C43.7051 28.3323 44.5708 28.3323 45.1049 28.8692L64.9132 48.8029C65.1695 49.0608 65.3137 49.4107 65.3137 49.7756C65.3137 50.1405 65.1695 50.4904 64.9132 50.7484L61.1935 54.4922L64.9132 58.2355C65.1695 58.4934 65.3137 58.8433 65.3137 59.2082C65.3137 59.5732 65.1695 59.923 64.9132 60.181L45.616 79.6009C45.349 79.869 44.9992 80.0034 44.6488 80.0034C44.299 80.0034 43.9492 79.869 43.6822 79.6009L34.6961 70.5579C34.162 70.0205 34.162 69.1493 34.6961 68.6118C35.2301 68.0749 36.0959 68.0749 36.6299 68.6118L40.3443 72.3497C41.6004 71.4732 43.0883 70.9997 44.6488 70.9997C46.2099 70.9997 47.6978 71.4732 48.9539 72.3497L57.7092 63.5389C56.8441 62.2792 56.3992 60.8141 56.3736 59.3421L50.0092 65.7467L50.0086 65.7473C50.0081 65.7473 50.0081 65.7473 50.0081 65.7478L45.6155 70.1677C45.3484 70.4364 44.9986 70.5708 44.6488 70.5708C44.299 70.5708 43.9492 70.4364 43.6822 70.1677L39.2895 65.7473H39.289L13.6306 39.9254C13.6039 41.4464 13.1377 42.8932 12.2923 44.1207L28.8957 60.8286C29.4297 61.3661 29.4297 62.2372 28.8957 62.7747C28.6286 63.0434 28.2788 63.1778 27.929 63.1778C27.5792 63.1778 27.2289 63.0434 26.9624 62.7747L5.08728 40.7611C4.55323 40.2242 4.55323 39.3531 5.08728 38.8162ZM25.3516 15.8126C26.1762 15.8126 26.9688 15.6057 27.6727 15.2182L25.3516 12.882L23.0301 15.2182C23.734 15.6057 24.5265 15.8126 25.3516 15.8126ZM10.3072 28.0217L7.98723 30.3563L10.3072 32.6904C11.0917 31.2404 11.0917 29.4717 10.3072 28.0217ZM59.6917 47.4399C59.3061 48.1483 59.101 48.9458 59.101 49.7756C59.101 50.6054 59.3061 51.4035 59.6917 52.1119L62.0127 49.7756L59.6917 47.4399ZM44.6488 73.7519C43.8242 73.7519 43.0312 73.9588 42.3278 74.3463L44.6488 76.6826L46.9698 74.3463C46.2665 73.9588 45.4734 73.7519 44.6488 73.7519ZM62.0127 59.2088L59.6933 56.8741C58.9082 58.3247 58.9082 60.0929 59.6933 61.5429L62.0127 59.2088ZM44.6488 67.2494L46.9682 64.9153C45.5273 64.1253 43.7703 64.1253 42.3294 64.9153L44.6488 67.2494ZM10.3088 42.1246C10.6938 41.4163 10.8995 40.6187 10.8995 39.7889C10.8995 38.9591 10.6938 38.161 10.3088 37.4527L7.98723 39.7889L10.3088 42.1246Z" fill="black"/>
<path d="M29.3266 34.3565C32.4551 31.2087 37.5453 31.2087 40.6738 34.3565C43.8018 37.5048 43.8018 42.6272 40.6738 45.7755C39.1095 47.3491 37.055 48.1365 35.0005 48.1365C32.9454 48.1365 30.8909 47.3491 29.3266 45.7755C26.1981 42.6272 26.1981 37.5048 29.3266 34.3565ZM31.2599 43.8294C33.3225 45.905 36.678 45.9045 38.74 43.8294C40.802 41.7544 40.802 38.3776 38.74 36.302C37.7087 35.2648 36.3543 34.7456 34.9999 34.7456C33.6456 34.7456 32.2912 35.2648 31.2599 36.302C29.1979 38.3776 29.1979 41.7544 31.2599 43.8294Z" fill="black"/>
<path d="M25.6395 32.592L21.979 28.9079C21.445 28.371 21.445 27.4998 21.979 26.9623C22.5131 26.4254 23.3783 26.4249 23.9123 26.9623L27.5733 30.6459C28.1074 31.1834 28.1074 32.0546 27.5733 32.592C27.3063 32.8607 26.9565 32.9951 26.6067 32.9951C26.2569 32.9951 25.9065 32.8607 25.6395 32.592Z" fill="black"/>
<path d="M44.3605 47.5399L48.0215 51.2235C48.555 51.761 48.555 52.6322 48.0215 53.1696C47.7545 53.4383 47.4046 53.5727 47.0548 53.5727C46.7045 53.5727 46.3547 53.4383 46.0877 53.1696L42.4272 49.4855C41.8932 48.9486 41.8932 48.0774 42.4272 47.5399C42.9613 47.0025 43.8264 47.0025 44.3605 47.5399Z" fill="black"/>
<path d="M3.28115 69.8228H5.49963C6.25479 69.8228 6.86682 70.4387 6.86682 71.1986C6.86682 71.9585 6.25479 72.5744 5.49963 72.5744H3.28115C2.52599 72.5744 1.91396 71.9585 1.91396 71.1986C1.91396 70.4387 2.52599 69.8228 3.28115 69.8228Z" fill="black"/>
<path d="M12.1534 69.8228H14.2186C14.9738 69.8228 15.5858 70.4387 15.5858 71.1986C15.5858 71.9585 14.9738 72.5744 14.2186 72.5744H12.1534C11.3983 72.5744 10.7862 71.9585 10.7862 71.1986C10.7862 70.4387 11.3983 69.8228 12.1534 69.8228Z" fill="black"/>
<path d="M8.74987 64.3193C9.50503 64.3193 10.1171 64.9352 10.1171 65.6952V67.7084C10.1171 68.4684 9.50503 69.0843 8.74987 69.0843C7.99471 69.0843 7.38268 68.4684 7.38268 67.7084V65.6952C7.38268 64.9352 7.99471 64.3193 8.74987 64.3193Z" fill="black"/>
<path d="M8.74987 73.7046C9.50503 73.7046 10.1171 74.321 10.1171 75.0804V76.7019C10.1171 77.4618 9.50503 78.0777 8.74987 78.0777C7.99471 78.0777 7.38268 77.4618 7.38268 76.7019V75.0804C7.38268 74.3205 7.99471 73.7046 8.74987 73.7046Z" fill="black"/>
<path d="M57.9998 19.7419H55.7813C55.0261 19.7419 54.4141 19.126 54.4141 18.3661C54.4141 17.6061 55.0261 16.9902 55.7813 16.9902H57.9998C58.7549 16.9902 59.3669 17.6061 59.3669 18.3661C59.3669 19.126 58.7549 19.7419 57.9998 19.7419Z" fill="black"/>
<path d="M63.2866 18.3661C63.2866 17.6061 63.8986 16.9902 64.6538 16.9902H66.719C67.4741 16.9902 68.0862 17.6061 68.0862 18.3661C68.0862 19.126 67.4741 19.7419 66.719 19.7419H64.6538C63.8986 19.7419 63.2866 19.126 63.2866 18.3661Z" fill="black"/>
<path d="M61.25 16.2518C60.4948 16.2518 59.8828 15.6359 59.8828 14.8759V12.8627C59.8828 12.1027 60.4948 11.4868 61.25 11.4868C62.0052 11.4868 62.6172 12.1027 62.6172 12.8627V14.8759C62.6172 15.6359 62.0052 16.2518 61.25 16.2518Z" fill="black"/>
<path d="M61.25 25.2452C60.4948 25.2452 59.8828 24.6293 59.8828 23.8694V22.2479C59.8828 21.4885 60.4948 20.8721 61.25 20.8721C62.0052 20.8721 62.6172 21.4885 62.6172 22.2479V23.8694C62.6172 24.6293 62.0052 25.2452 61.25 25.2452Z" fill="black"/>
<path d="M31.7939 64.3193C32.1534 64.3193 32.5064 64.4666 32.7606 64.7224C33.0148 64.9782 33.1611 65.3335 33.1611 65.6952C33.1611 66.0569 33.0148 66.4121 32.7606 66.6679C32.5064 66.9238 32.1534 67.071 31.7939 67.071C31.4345 67.071 31.0815 66.9238 30.8273 66.6679C30.5731 66.4121 30.4268 66.0569 30.4268 65.6952C30.4268 65.3335 30.5731 64.9782 30.8273 64.7224C31.0815 64.4666 31.4345 64.3193 31.7939 64.3193Z" fill="black"/>
<path d="M40.2654 27.3199C39.906 27.3199 39.5529 27.1731 39.2987 26.9168C39.0429 26.661 38.8982 26.3063 38.8982 25.944C38.8982 25.5823 39.0429 25.2276 39.2987 24.9718C39.5529 24.7154 39.9044 24.5682 40.2654 24.5682C40.6248 24.5682 40.9778 24.7154 41.232 24.9718C41.4862 25.2276 41.6326 25.5823 41.6326 25.944C41.6326 26.3063 41.4862 26.661 41.232 26.9168C40.9762 27.1731 40.6248 27.3199 40.2654 27.3199Z" fill="black"/>
</g>
<defs>
<clipPath id="clip0_5_165">
<rect width="70" height="70.443" fill="white" transform="matrix(-1 0 0 1 70 9.56061)"/>
</clipPath>
</defs>
</svg>
