<svg width="105" height="86" viewBox="0 0 105 86" fill="none" xmlns="http://www.w3.org/2000/svg">
<path opacity="0.2" fill-rule="evenodd" clip-rule="evenodd" d="M104.987 40.0131C105.126 34.3152 104.156 28.5478 101.316 23.1279C99.1681 19.0282 95.9122 15.9013 92.587 12.8439C85.9367 6.65956 77.9701 3.04626 69.1722 1.37858C57.3955 -0.84499 46.3116 1.03115 36.7516 8.60519C29.7549 14.1641 24.7671 21.3212 22.204 30.0071C21.2341 33.2729 20.4721 36.6778 20.195 40.0826C19.433 48.282 21.3727 55.7866 25.5984 62.8742C31.8331 73.3667 40.9774 80.3848 52.3384 83.9286C65.7777 88.1673 78.455 86.0132 89.3311 76.4241C95.358 71.0736 99.9994 64.6114 102.563 56.8984C104.294 51.4784 105.056 45.989 104.987 40.0131Z" fill="#B04D50"/>
<g clip-path="url(#clip0_5_190)">
<path d="M8.76177 40.1618L8.75002 19.285C8.74842 16.7338 10.8029 14.6641 13.3381 14.6625L34.1108 14.6512C34.9231 14.6507 35.7023 14.9753 36.2769 15.5531L67.2881 46.761C69.0809 48.5652 69.0809 51.4899 67.2881 53.2941L47.1632 73.5469C45.3703 75.3511 42.4635 75.3511 40.6706 73.5469L9.65792 42.3379C9.08434 41.7607 8.7623 40.9782 8.76177 40.1618Z" fill="#FFCB7C"/>
<path d="M15.956 25.5854C15.956 27.6266 17.6004 29.2814 19.6282 29.2814C21.6565 29.2814 23.3009 27.6266 23.3009 25.5854C23.3009 23.5442 21.6565 21.8895 19.6282 21.8895C17.6004 21.8895 15.956 23.5442 15.956 25.5854Z" fill="white"/>
<path d="M61.2538 50.0276L35.3328 23.9426L17.9962 41.3883L43.9172 67.474L61.2538 50.0276Z" fill="#FF6977"/>
<path d="M36.2395 52.6723C36.2395 54.1529 37.4321 55.3535 38.9034 55.3535C40.3747 55.3535 41.5673 54.1529 41.5673 52.6723C41.5673 51.1916 40.3747 49.9915 38.9034 49.9915C37.4321 49.9915 36.2395 51.1916 36.2395 52.6723Z" fill="white"/>
<path d="M35.5618 38.7435C35.5618 40.2241 36.7549 41.4242 38.2263 41.4242C39.6971 41.4242 40.8901 40.2241 40.8901 38.7435C40.8901 37.2628 39.6971 36.0627 38.2263 36.0627C36.7549 36.0627 35.5618 37.2628 35.5618 38.7435Z" fill="white"/>
<path d="M4.64844 24.2096H7.38548L7.38281 19.2856C7.38121 15.9798 10.052 13.2888 13.3376 13.2872L34.1103 13.2754C34.1113 13.2754 34.1119 13.2754 34.1129 13.2754C35.2953 13.2754 36.4072 13.7387 37.2436 14.5803L68.2552 45.7882C69.3805 46.9206 70 48.426 70 50.0275C70 51.6291 69.3805 53.1345 68.2552 54.2668L48.1298 74.5197C46.9682 75.6886 45.4424 76.2728 43.9172 76.2728C42.3914 76.2728 40.8656 75.6886 39.704 74.5197L20.1788 54.8709C19.6448 54.3335 19.6448 53.4623 20.1788 52.9254C20.7129 52.388 21.5786 52.388 22.1127 52.9254L41.6378 72.5741C42.8944 73.8387 44.9393 73.8387 46.196 72.5741L66.3214 52.3213C66.9302 51.7086 67.2656 50.8939 67.2656 50.0275C67.2656 49.1612 66.9302 48.3464 66.3214 47.7338L35.3103 16.5264C34.9904 16.2044 34.5653 16.0271 34.1129 16.0271H34.1119L13.3392 16.0389C11.5618 16.0394 10.1161 17.4959 10.1172 19.2845L10.1236 30.8136H16.2818C16.8121 30.8136 17.2923 30.5954 17.6394 30.2439C17.0674 29.9972 16.5312 29.6409 16.065 29.1717C14.1002 27.194 14.1002 23.9769 16.065 21.9996C18.0303 20.0218 21.2272 20.0218 23.1925 21.9996C25.1573 23.9769 25.1573 27.194 23.1925 29.1717C22.4641 29.9048 21.5658 30.3654 20.6242 30.5551C19.9551 32.313 18.2616 33.5653 16.2818 33.5653H10.1252L10.1289 40.1607C10.1289 40.6159 10.3052 41.0432 10.6251 41.3646L14.3784 45.1422C14.9125 45.6797 14.9125 46.5508 14.3784 47.0883C13.8449 47.6252 12.9792 47.6252 12.4451 47.0883L8.69125 43.3106C7.85599 42.4695 7.3951 41.3517 7.39456 40.1623L7.39082 33.5653H4.64844C2.08549 33.5653 0 31.4671 0 28.8874C0 26.3083 2.08549 24.2096 4.64844 24.2096ZM21.2587 23.9451C20.809 23.4926 20.2189 23.2669 19.6282 23.2669C19.0381 23.2669 18.448 23.4932 17.9983 23.9451C17.8562 24.0886 17.7387 24.2472 17.6415 24.4143C19.1422 24.8771 20.3214 26.0858 20.7524 27.6089C20.9335 27.5073 21.1049 27.381 21.2587 27.2262C22.1575 26.3212 22.1575 24.8497 21.2587 23.9451ZM4.64844 30.8136H7.38922L7.38708 26.9612H4.64844C3.59314 26.9612 2.73438 27.8254 2.73438 28.8874C2.73438 29.9494 3.59314 30.8136 4.64844 30.8136Z" fill="black"/>
<path d="M47.9317 47.9884C47.7634 48.5974 47.2139 48.9956 46.6158 48.9956C46.494 48.9956 46.3706 48.9795 46.2483 48.9451L32.2133 45.0137C31.4859 44.81 31.0603 44.0512 31.2627 43.3192C31.4651 42.5877 32.2186 42.1594 32.9466 42.3631L46.9816 46.2939C47.7084 46.4981 48.1341 47.2564 47.9317 47.9884Z" fill="black"/>
<path d="M41.7536 49.804C42.5152 50.5704 42.9344 51.5888 42.9344 52.6728C42.9344 53.7563 42.5152 54.7748 41.7536 55.5411C40.9675 56.3317 39.9357 56.7273 38.9034 56.7273C37.871 56.7273 36.8387 56.3317 36.0526 55.5411C34.4809 53.9595 34.4809 51.3857 36.0526 49.804C37.6243 48.2223 40.1819 48.2223 41.7536 49.804ZM37.9864 53.5951C38.4922 54.104 39.3146 54.104 39.8204 53.5951C40.0655 53.3489 40.2001 53.0211 40.2001 52.6723C40.2001 52.324 40.065 51.9962 39.8204 51.7495C39.5672 51.4953 39.235 51.3679 38.9034 51.3679C38.5712 51.3679 38.239 51.4953 37.9864 51.7495C37.4807 52.2585 37.4807 53.0867 37.9864 53.5951Z" fill="black"/>
<path d="M35.3754 41.6123C33.8036 40.0301 33.8036 37.4568 35.3754 35.8752C36.1369 35.1088 37.1495 34.6869 38.2262 34.6869C39.3028 34.6869 40.3154 35.1088 41.0764 35.8752C42.6482 37.4568 42.6482 40.0301 41.0764 41.6123C40.2903 42.4029 39.2585 42.7984 38.2262 42.7984C37.1938 42.7984 36.1615 42.4029 35.3754 41.6123ZM39.1432 37.8207C38.898 37.574 38.5723 37.4386 38.2262 37.4386C37.8796 37.4386 37.5538 37.574 37.3092 37.8207C36.8035 38.3296 36.8035 39.1573 37.3092 39.6663C37.8144 40.1752 38.6374 40.1752 39.1432 39.6663C39.6484 39.1573 39.6484 38.3296 39.1432 37.8207Z" fill="black"/>
<path d="M56.4019 45.1455C56.9359 44.608 57.8016 44.608 58.3357 45.1455L62.2204 49.0548C62.4768 49.3128 62.621 49.6626 62.621 50.0276C62.621 50.3925 62.4768 50.7424 62.2204 51.0003L44.8833 68.4472C44.6168 68.7153 44.2665 68.8497 43.9167 68.8497C43.5669 68.8497 43.2171 68.7153 42.95 68.4472L17.029 42.3615C16.4949 41.8241 16.4949 40.9529 17.029 40.4155L34.3656 22.9692C34.6219 22.7112 34.9696 22.5661 35.3322 22.5661C35.6949 22.5661 36.0425 22.7112 36.2989 22.9692L50.6015 37.3623C51.1355 37.8997 51.1355 38.7709 50.6015 39.3084C50.0679 39.8453 49.2022 39.8453 48.6682 39.3084L35.3322 25.888L19.9289 41.3888L43.9167 65.5283L59.32 50.0276L56.4019 47.091C55.8683 46.5536 55.8678 45.6829 56.4019 45.1455Z" fill="black"/>
<path d="M17.2783 48.6307C17.6383 48.6307 17.9908 48.778 18.245 49.0338C18.4992 49.2896 18.6455 49.6449 18.6455 50.0066C18.6455 50.3683 18.4992 50.7235 18.245 50.9793C17.9908 51.2352 17.6383 51.3824 17.2783 51.3824C16.9189 51.3824 16.5664 51.2352 16.3117 50.9793C16.0575 50.7235 15.9111 50.3683 15.9111 50.0066C15.9111 49.6449 16.0575 49.2896 16.3117 49.0338C16.5664 48.778 16.9189 48.6307 17.2783 48.6307Z" fill="black"/>
<path d="M52.5358 43.1988C52.28 42.943 52.1348 42.5894 52.1348 42.2261C52.1348 41.8644 52.28 41.5107 52.5358 41.2533C52.7901 40.9975 53.1415 40.8502 53.502 40.8502C53.8619 40.8502 54.2144 40.9975 54.4686 41.2533C54.7233 41.5091 54.8691 41.8644 54.8691 42.2261C54.8691 42.5894 54.7233 42.943 54.4686 43.1988C54.2133 43.4563 53.8619 43.6019 53.502 43.6019C53.1415 43.6019 52.7901 43.4563 52.5358 43.1988Z" fill="black"/>
</g>
<defs>
<clipPath id="clip0_5_190">
<rect width="70" height="70.443" fill="white" transform="matrix(-1 0 0 1 70 9.56061)"/>
</clipPath>
</defs>
</svg>
