<svg width="101" height="86" viewBox="0 0 101 86" fill="none" xmlns="http://www.w3.org/2000/svg">
<path opacity="0.1" fill-rule="evenodd" clip-rule="evenodd" d="M100.987 40.0131C101.131 34.3152 100.122 28.5478 97.1697 23.1279C94.9372 19.0282 91.5523 15.9013 88.0954 12.8439C81.1817 6.65956 72.8996 3.04626 63.7533 1.37858C51.5102 -0.84499 39.9873 1.03115 30.0487 8.60519C22.7749 14.1641 17.5896 21.3212 14.9249 30.0071C13.9167 33.2729 13.1245 36.6778 12.8364 40.0826C12.0442 48.282 14.0607 55.7866 18.4538 62.8742C24.9355 73.3667 34.4419 80.3848 46.2528 83.9286C60.2244 88.1673 73.4037 86.0132 84.7106 76.4241C90.9762 71.0736 95.8014 64.6114 98.466 56.8984C100.267 51.4784 101.059 45.989 100.987 40.0131Z" fill="#B04D50"/>
<path d="M67.4039 22.8302C69.1116 22.8302 70.4959 21.898 70.4959 20.7481C70.4959 19.5981 69.1116 18.6659 67.4039 18.6659C65.6963 18.6659 64.312 19.5981 64.312 20.7481C64.312 21.898 65.6963 22.8302 67.4039 22.8302Z" stroke="#4C241D" stroke-width="2.90596" stroke-linecap="round" stroke-linejoin="round"/>
<path d="M26.5907 52.8134C41.2763 52.8134 53.1813 44.7963 53.1813 34.9067C53.1813 25.0171 41.2763 17 26.5907 17C11.905 17 0 25.0171 0 34.9067C0 44.7963 11.905 52.8134 26.5907 52.8134Z" fill="#E5EFEF"/>
<path d="M24.5339 20.8837L19.99 23.9446" stroke="#4C241D" stroke-width="2.90596" stroke-linecap="round" stroke-linejoin="round"/>
<path d="M19.99 20.8837L24.5339 23.9446" stroke="#4C241D" stroke-width="2.90596" stroke-linecap="round" stroke-linejoin="round"/>
<path d="M17.3149 27.8274C17.998 27.8274 18.5517 27.4545 18.5517 26.9946C18.5517 26.5346 17.998 26.1617 17.3149 26.1617C16.6318 26.1617 16.0781 26.5346 16.0781 26.9946C16.0781 27.4545 16.6318 27.8274 17.3149 27.8274Z" fill="#4C241D"/>
<path d="M7.11792 43.652C9.80543 53.0292 18.0349 60.4068 28.4844 62.808H23.4978V65.3066H48.2333V62.808H43.2466C53.6961 60.4068 61.9219 53.0292 64.6131 43.652" fill="white"/>
<path d="M7.11792 43.652C9.80543 53.0292 18.0349 60.4068 28.4844 62.808H23.4978V65.3066H48.2333V62.808H43.2466C53.6961 60.4068 61.9219 53.0292 64.6131 43.652" stroke="#4C241D" stroke-width="2.90596" stroke-linecap="round" stroke-linejoin="round"/>
<path d="M27.2085 41.1534C31.3068 41.1534 34.6291 38.916 34.6291 36.1561C34.6291 33.3963 31.3068 31.1589 27.2085 31.1589C23.1102 31.1589 19.7878 33.3963 19.7878 36.1561C19.7878 38.916 23.1102 41.1534 27.2085 41.1534Z" fill="#BF7E68" stroke="#4C241D" stroke-width="2.90596" stroke-linecap="round" stroke-linejoin="round"/>
<path d="M36.4843 37.8219C41.6072 37.8219 45.7601 35.0252 45.7601 31.5754C45.7601 28.1255 41.6072 25.3289 36.4843 25.3289C31.3614 25.3289 27.2085 28.1255 27.2085 31.5754C27.2085 35.0252 31.3614 37.8219 36.4843 37.8219Z" fill="#F4AEAB" stroke="#4C241D" stroke-width="2.90596" stroke-linecap="round" stroke-linejoin="round"/>
<path d="M45.7605 41.1534C49.8588 41.1534 53.1811 38.916 53.1811 36.1561C53.1811 33.3963 49.8588 31.1589 45.7605 31.1589C41.6622 31.1589 38.3398 33.3963 38.3398 36.1561C38.3398 38.916 41.6622 41.1534 45.7605 41.1534Z" fill="#E2E2E2" stroke="#4C241D" stroke-width="2.90596" stroke-linecap="round" stroke-linejoin="round"/>
<path d="M27.2085 41.1533C27.2085 39.8279 26.4267 38.5569 25.035 37.6197C23.6434 36.6826 21.7559 36.1561 19.7878 36.1561C17.8198 36.1561 15.9323 36.6826 14.5406 37.6197C13.149 38.5569 12.3672 39.8279 12.3672 41.1533H27.2085Z" fill="#77A052" stroke="#4C241D" stroke-width="2.90596" stroke-linecap="round" stroke-linejoin="round"/>
<path d="M43.2866 41.1533C43.2866 39.8279 42.5048 38.5569 41.1132 37.6197C39.7215 36.6826 37.834 36.1561 35.866 36.1561C33.8979 36.1561 32.0104 36.6826 30.6188 37.6197C29.2271 38.5569 28.4453 39.8279 28.4453 41.1533H43.2866Z" fill="#FFCE56" stroke="#4C241D" stroke-width="2.90596" stroke-linecap="round" stroke-linejoin="round"/>
<path d="M59.3647 41.1533C59.3647 39.8279 58.5829 38.5569 57.1913 37.6197C55.7996 36.6826 53.9122 36.1561 51.9441 36.1561C49.976 36.1561 48.0885 36.6826 46.6969 37.6197C45.3053 38.5569 44.5234 39.8279 44.5234 41.1533H59.3647Z" fill="#816982" stroke="#4C241D" stroke-width="2.90596" stroke-linecap="round" stroke-linejoin="round"/>
<path d="M71.7319 65.3066C71.7319 63.9813 70.9501 62.7102 69.5585 61.773C68.1668 60.8359 66.2794 60.3094 64.3113 60.3094C62.3432 60.3094 60.4557 60.8359 59.0641 61.773C57.6724 62.7102 56.8906 63.9813 56.8906 65.3066H71.7319Z" fill="#E66353" stroke="#4C241D" stroke-width="2.90596" stroke-linecap="round" stroke-linejoin="round"/>
<path d="M30.635 48.8748L33.8593 49.1105L35.8913 47.4081L37.9233 49.1105L41.1476 48.8748L40.7963 51.0461L43.3243 52.4145L40.7963 53.7829L41.1476 55.9542L37.9233 55.7177L35.8913 57.4201L33.8593 55.7177L30.635 55.9542L30.985 53.7829L28.457 52.4145L30.985 51.0461L30.635 48.8748Z" fill="#FFCE56" stroke="#4C241D" stroke-width="2.90596" stroke-linecap="round" stroke-linejoin="round"/>
<path d="M14.5689 43.6527H6.80194C6.30992 43.6527 5.83805 43.521 5.49014 43.2867C5.14223 43.0523 4.94678 42.7344 4.94678 42.403C4.94678 42.0716 5.14223 41.7537 5.49014 41.5193C5.83805 41.285 6.30992 41.1533 6.80194 41.1533H64.9303C65.4224 41.1533 65.8942 41.285 66.2421 41.5193C66.5901 41.7537 66.7855 42.0716 66.7855 42.403C66.7855 42.7344 66.5901 43.0523 66.2421 43.2867C65.8942 43.521 65.4224 43.6527 64.9303 43.6527H23.4984" fill="white"/>
<path d="M14.5689 43.6527H6.80194C6.30992 43.6527 5.83805 43.521 5.49014 43.2867C5.14223 43.0523 4.94678 42.7344 4.94678 42.403C4.94678 42.0716 5.14223 41.7537 5.49014 41.5193C5.83805 41.285 6.30992 41.1533 6.80194 41.1533H64.9303C65.4224 41.1533 65.8942 41.285 66.2421 41.5193C66.5901 41.7537 66.7855 42.0716 66.7855 42.403C66.7855 42.7344 66.5901 43.0523 66.2421 43.2867C65.8942 43.521 65.4224 43.6527 64.9303 43.6527H23.4984" stroke="#4C241D" stroke-width="2.90596" stroke-linecap="round" stroke-linejoin="round"/>
<path d="M28.4453 62.8079H34.6292" stroke="#4C241D" stroke-width="2.90596" stroke-linecap="round" stroke-linejoin="round"/>
<path d="M70.4957 65.3065H2.47314" stroke="#4C241D" stroke-width="2.90596" stroke-linecap="round" stroke-linejoin="round"/>
</svg>
