<svg width="105" height="86" viewBox="0 0 105 86" fill="none" xmlns="http://www.w3.org/2000/svg">
<path opacity="0.1" fill-rule="evenodd" clip-rule="evenodd" d="M104.987 40.0131C105.127 34.3152 104.148 28.5478 101.28 23.1279C99.112 19.0282 95.8248 15.9013 92.4677 12.8439C85.7534 6.65956 77.7102 3.04626 68.8277 1.37858C56.9378 -0.84499 45.7472 1.03115 36.0954 8.60519C29.0314 14.1641 23.9957 21.3212 21.4079 30.0071C20.4287 33.2729 19.6593 36.6778 19.3796 40.0826C18.6102 48.282 20.5686 55.7866 24.8349 62.8742C31.1296 73.3667 40.3618 80.3848 51.8321 83.9286C65.4006 88.1673 78.1998 86.0132 89.1805 76.4241C95.2653 71.0736 99.9513 64.6114 102.539 56.8984C104.288 51.4784 105.057 45.989 104.987 40.0131Z" fill="#B04D50"/>
<g clip-path="url(#clip0_5_94)">
<path d="M22.7727 45.3937C22.8896 45.8374 22.4412 46.3282 21.7794 46.495C21.1164 46.6597 20.4921 46.4319 20.3784 45.9893L16.492 30.4844C16.3793 30.0418 16.8266 29.5446 17.4853 29.3853C18.1482 29.2142 18.7768 29.442 18.8863 29.8868L22.7727 45.3937Z" fill="#808285"/>
<path d="M21.7546 45.4974C21.7814 45.6032 21.7871 45.7132 21.7713 45.8211C21.7554 45.929 21.7184 46.0327 21.6623 46.1264C21.6062 46.22 21.5322 46.3017 21.4444 46.3668C21.3566 46.4319 21.2568 46.4791 21.1506 46.5057C20.9367 46.5575 20.711 46.5229 20.5225 46.4096C20.3341 46.2962 20.1982 46.1133 20.1444 45.9005L16.2537 30.3979C16.2102 30.1888 16.2494 29.9711 16.3632 29.7902C16.477 29.6093 16.6565 29.4792 16.8643 29.4272C17.072 29.3751 17.2919 29.4051 17.478 29.5109C17.6641 29.6167 17.8019 29.79 17.8628 29.9948L21.7546 45.4974Z" fill="#9D9EA4"/>
<path d="M24.7893 24.8497C24.5629 21.2892 22.4454 18.8235 20.1069 17.6388C18.899 17.0219 17.4734 16.5963 15.816 16.669C12.0122 16.8337 9.63503 19.2769 8.72643 21.8762C8.25229 23.2234 8.10104 24.9577 8.73931 26.6759C9.84099 29.6772 12.7513 31.45 15.8793 31.0159C17.7201 30.7572 18.9644 29.8376 19.8291 28.5834C20.8009 27.1774 21.3598 24.5321 19.8881 22.5391C18.663 20.8711 15.5436 19.7238 13.4518 21.6794C12.6891 22.3862 11.98 23.7944 12.4799 25.2731C12.8993 26.5455 14.2531 27.4073 15.5275 27.0619C16.4629 26.8117 16.9574 26.1242 16.7729 25.056C16.6602 25.0293 16.6302 25.3779 16.509 25.5468C16.3878 25.7158 16.1743 25.8975 15.9394 25.9831C14.5803 26.4974 13.6996 25.3169 13.8465 24.0841C13.9559 23.0897 14.8742 22.2643 16.1067 22.2472C17.3768 22.2226 18.5171 23.0641 18.9484 24.2135C19.7583 26.3765 18.3455 28.731 16.0896 29.3041C13.632 29.9285 11.419 28.5054 10.4996 26.5711C9.64039 24.7663 9.98473 23.0374 10.6434 21.6955C11.5648 19.8147 13.7199 18.1542 16.6678 18.367C19.4858 18.5691 22.4197 20.5054 23.0118 24.2659C23.2092 25.5351 23.1041 26.4418 22.8262 27.4543C22.3403 29.2592 21.3469 30.8566 19.5062 32.0637C17.6901 33.2527 15.0029 33.6772 12.969 33.1832C11.066 32.7213 9.36363 31.713 8.13859 30.2204C6.67286 28.4324 5.92041 26.1683 6.02534 23.8617C6.13176 21.9019 6.79799 20.0133 7.9455 18.4183C8.99784 16.962 10.9266 15.4779 13.0109 14.8182L14.2145 14.5146C16.5744 14.228 18.6877 14.4921 20.507 15.2438C19.3553 14.5341 18.0724 14.0619 16.7343 13.8553C15.3962 13.6487 14.0301 13.7118 12.7169 14.0409C7.27934 15.3956 3.97108 20.8968 5.32914 26.3188C6.69149 31.743 12.2053 35.0405 17.6461 33.6868C19.5646 33.2095 21.3013 32.1839 22.643 30.7361C23.9846 29.2882 24.8727 27.4813 25.198 25.5372C25.036 25.364 24.8923 25.1405 24.7871 24.8497" fill="#DEB5E5"/>
<path d="M10.4804 26.5722C10.9342 27.5235 11.6689 28.3137 12.5861 28.8368L13.0935 26.3209C12.8125 26.0237 12.5861 25.6687 12.4563 25.2742C12.2585 24.6764 12.2381 24.0345 12.3973 23.4255L10.3549 22.3113C9.89037 23.5463 9.7477 25.0293 10.4804 26.5722Z" fill="#29ABE2"/>
<path d="M12.9499 33.1811C13.6001 33.3298 14.2665 33.3966 14.9333 33.38L15.105 31.0704C13.8928 31.1036 12.745 30.8138 11.7377 30.2514L9.57084 31.5997C10.5778 32.3507 11.728 32.8888 12.951 33.1811M7.92743 18.4183C7.05413 19.6341 6.45608 21.0244 6.17461 22.4931L8.47666 22.6963C8.81164 21.2583 9.5389 19.9406 10.5781 18.8888L9.0849 17.1299C8.6365 17.5469 8.24174 17.9853 7.92743 18.4183Z" fill="#93278F"/>
<path d="M16.0693 29.3051C18.3252 28.7299 19.738 26.3776 18.9281 24.2124C18.4969 23.063 17.3598 22.2237 16.0897 22.2461C14.8529 22.2654 13.9335 23.0908 13.8252 24.0852C13.6825 25.3201 14.5632 26.4984 15.9181 25.982C16.1455 25.8921 16.3439 25.742 16.492 25.5479C16.6089 25.3789 16.6389 25.025 16.7516 25.0571C16.9404 26.1263 16.4416 26.8128 15.5062 27.063C15.4354 27.0843 15.3635 27.0993 15.2927 27.1089L14.8271 29.4505C15.2458 29.457 15.6635 29.4081 16.0693 29.3051ZM7.88879 29.9306L9.87653 28.6935C9.3804 28.0875 8.98954 27.403 8.72015 26.6684C8.52039 26.1286 8.39062 25.5655 8.33397 24.9929L6.01153 24.7887C6.11574 26.6495 6.76879 28.4383 7.88879 29.9306ZM19.4913 32.0691C20.5426 31.3773 21.3235 30.554 21.8845 29.6409L19.8088 28.592C19.221 29.4366 18.4583 30.1381 17.4521 30.5732L17.2761 33.0431C18.0598 32.8323 18.8068 32.5039 19.4913 32.0691Z" fill="#29ABE2"/>
<path d="M22.8114 27.4532C23.0849 26.4418 23.1933 25.5351 22.9927 24.267C22.6483 22.0879 21.5166 20.5161 20.0738 19.5442L19.0547 21.7136C19.3632 21.9513 19.6384 22.2289 19.8732 22.5391C20.7614 23.742 20.9084 25.1801 20.6735 26.4418L22.791 27.511C22.7985 27.4949 22.8028 27.4746 22.8114 27.4511" fill="#93278F"/>
<path d="M16.6485 18.3659C14.443 18.2098 12.687 19.0972 11.5499 20.3386L13.6545 21.4837C14.6532 20.6818 15.8483 20.5204 16.9542 20.747L17.969 18.5872C17.5292 18.4696 17.0894 18.3969 16.6485 18.3648M18.4464 14.6321L18.2415 16.9267C18.9076 17.1021 19.5287 17.3469 20.0951 17.6399C20.8692 18.0338 21.5788 18.5425 22.1998 19.1485L23.9398 17.6067C22.4755 16.0777 20.6272 15.0609 18.4464 14.6321ZM24.7733 24.8497C25.3944 26.5176 27.1139 26.0322 27.1257 25.7852C27.1847 23.5976 26.4789 21.2656 25.3525 19.4372L23.6212 20.9716C24.3024 22.1574 24.6969 23.4853 24.7733 24.8497Z" fill="#29ABE2"/>
<path d="M14.1996 14.5167L12.9917 14.8182C12.2794 15.0438 11.5864 15.3678 10.9417 15.7506L12.4467 17.5265C13.4888 17.0007 14.6337 16.7084 15.8011 16.6701C15.8472 16.6658 15.8977 16.6658 15.9438 16.6658L16.1487 14.4044C15.4972 14.3982 14.846 14.4357 14.1996 14.5167Z" fill="#93278F"/>
<path d="M25.3481 19.4383C25.2652 19.298 25.1772 19.1607 25.0843 19.0267C24.7313 18.5124 24.3494 18.0398 23.9354 17.6057L22.1954 19.1475C22.7492 19.6892 23.2273 20.3028 23.6168 20.9716L25.3481 19.4383ZM16.1496 14.4044L15.9447 16.6658C16.7191 16.6449 17.4926 16.7327 18.2425 16.9267L18.4474 14.6322C17.7179 14.49 16.9498 14.4108 16.1496 14.4044ZM9.08576 17.1299L10.5779 18.8887C11.127 18.3414 11.7577 17.8819 12.4477 17.5266L10.9426 15.7506C10.2582 16.1579 9.6307 16.6273 9.08576 17.1299ZM6.00706 23.8639C5.9899 24.1771 5.9899 24.4829 6.00706 24.7919L8.3295 24.9962C8.25461 24.2268 8.30276 23.4505 8.47217 22.6963L6.17012 22.4931C6.08644 22.9486 6.03174 23.4041 6.00706 23.8639ZM8.12032 30.2225C8.54737 30.7388 9.0346 31.2026 9.5717 31.604L11.7386 30.2557C11.0281 29.8534 10.3973 29.3251 9.87743 28.6967L7.88968 29.9338C7.96477 30.0322 8.03986 30.1306 8.11924 30.2225M17.276 33.0421L17.4519 30.5722C16.9788 30.7817 16.45 30.9357 15.86 31.0159C15.6036 31.0533 15.3515 31.0747 15.1048 31.079L14.9331 33.3885C15.7253 33.3686 16.5121 33.2523 17.276 33.0421ZM22.7897 27.5142L20.6722 26.445C20.5134 27.2747 20.1991 28.0306 19.8086 28.5941L21.8843 29.643C22.2862 28.9819 22.5911 28.2668 22.7897 27.5195M17.9786 18.5872L16.9638 20.7471C17.7268 20.9079 18.4434 21.2387 19.0599 21.7147L20.079 19.5453C19.4358 19.1144 18.7263 18.7911 17.9786 18.5883M10.6305 21.6965C10.5339 21.8911 10.4406 22.0975 10.3612 22.3113L12.4037 23.4255C12.5808 22.7596 12.9373 22.1547 13.4346 21.6762C13.5087 21.6105 13.5841 21.5464 13.6609 21.4838L11.5562 20.3386C11.1754 20.7588 10.8611 21.2186 10.6305 21.6965ZM14.8248 29.4516L15.2904 27.11C14.4815 27.2437 13.663 26.9111 13.0934 26.322L12.586 28.8379C13.2698 29.2242 14.0391 29.4351 14.8248 29.4516Z" fill="#FBB03B"/>
<path d="M33.7456 18.2675L12.996 23.6307L18.4154 44.4657L39.166 39.1024L33.7456 18.2675Z" fill="#00A79D"/>
<path d="M25.0618 19.9141L21.3974 20.8615L27.1086 42.8233L30.7729 41.8771L25.0618 19.9141Z" fill="#EF4136"/>
<path d="M37.5022 30.0589L36.5507 26.4097L14.5182 32.1129L15.4697 35.7632L37.5022 30.0589Z" fill="#EF4136"/>
<path d="M64.2878 18.2996L35.0241 10.4911L27.1332 39.8734L56.3969 47.6819L64.2878 18.2996Z" fill="#FFF200"/>
<path d="M38.9664 43.884L44.1272 45.2644L52.4558 14.2846L47.2885 12.9032L38.9664 43.884Z" fill="#27AAE1"/>
<path d="M60.6675 35.4082L62.0513 30.2567L30.965 21.9595L29.5812 27.11L60.6675 35.4082Z" fill="#27AAE1"/>
<path d="M59.4349 33.0207L64.2107 32.4743L67.9587 74.4948L61.6823 73.7635L52.4558 50.2726L59.4349 33.0207Z" fill="#BE1E2D"/>
<path d="M67.9587 74.4895L58.8728 78.6124L61.6823 73.7581L67.9587 74.4895Z" fill="#CC2D32"/>
<path d="M59.4348 33.0207L61.6821 73.7581L58.8727 78.6124L50.3854 46.942L57.653 31.7066L59.4348 33.0207Z" fill="#840C1A"/>
<path d="M5.36357 32.4743L57.6531 31.7066L58.8728 78.6124L2.04887 75.2444L5.36357 32.4743Z" fill="#C92B3D"/>
<path d="M37.6663 36.9223C28.3626 39.0265 19.5503 43.3911 10.0277 39.5558C8.32106 38.8672 6.6487 38.1006 4.98813 37.3126L5.36251 32.4732L57.6542 31.7066L57.9385 42.602C51.9377 38.4085 45.687 35.1067 37.6663 36.9223Z" fill="#BE1E2D"/>
<path d="M31.023 47.22C43.0224 43.6969 49.0017 46.2245 58.1874 52.2763L58.6572 70.4136C55.3704 67.8357 52.3432 64.7552 48.8794 62.018C43.4204 57.7091 38.2928 58.975 31.9648 60.1704C22.9712 61.8715 13.7179 63.2241 4.90019 59.8197C4.33916 59.6016 3.83177 59.3589 3.29863 59.1258L4.33916 45.7113C12.4864 49.0334 20.8998 50.1913 31.0262 47.22" fill="#DB425F"/>
<path d="M24.8774 69.9731C29.2884 69.261 34.6177 67.2594 39.0534 67.3887C45.6989 67.5769 48.8516 71.6464 53.372 75.6207C54.5064 76.6193 55.6768 77.5765 56.8809 78.4905L2.05432 75.2454L2.6411 67.6443C9.84975 70.1538 17.1743 71.2166 24.8796 69.9731" fill="#D1334A"/>
<path d="M2.49284 68.69L58.6924 70.6253L58.877 78.6124L0.703541 75.3513L2.49284 68.69Z" fill="#BE1E2D"/>
<path d="M43.4654 38.7827C43.4654 40.4689 45.1003 41.8418 47.1127 41.8418C49.1208 41.8418 50.7556 40.4689 50.7556 38.7827C50.7556 37.0923 49.1208 35.7258 47.1127 35.7258C45.1003 35.7247 43.4654 37.0923 43.4654 38.7827ZM8.74054 38.0888C8.74054 39.7728 10.3711 41.1457 12.3835 41.1457C14.3959 41.1457 16.0307 39.7728 16.0307 38.0888C16.0307 36.3983 14.3959 35.0319 12.3835 35.0319C10.3711 35.0308 8.74054 36.3983 8.74054 38.0888Z" fill="#FFF200"/>
<path d="M45.4187 40.9094C44.4253 46.1091 45.0797 52.5779 34.2109 56.4068C32.3916 57.0462 30.0724 57.6011 27.7532 57.7348C25.2334 57.8855 23.0793 57.4803 21.393 56.7703C17.5098 55.1109 16.0852 52.4934 15.1788 50.2085C13.9001 46.9794 13.2415 43.5975 13.4893 40.2775C13.5525 39.312 10.0383 39.3248 9.96752 40.2946C9.75405 43.1709 10.3569 46.0257 11.1336 48.8484C11.8083 51.3151 12.9282 53.8011 15.6272 55.9609C16.9477 57.0184 18.6962 58.0053 21.1023 58.6447C23.296 59.2295 25.9285 59.3418 28.5577 59.1622C33.8322 58.7944 38.49 56.9393 41.5376 55.1301C44.8287 53.1788 46.3423 50.7506 47.2981 48.4763C48.3547 45.9573 48.4469 43.4072 48.9254 40.8945C49.1099 39.9322 45.5924 39.945 45.4122 40.9084" fill="#E6E7E8"/>
</g>
<defs>
<clipPath id="clip0_5_94">
<rect width="68.6538" height="68.4304" fill="white" transform="matrix(-1 0 0 1 68.6538 10.567)"/>
</clipPath>
</defs>
</svg>
