<svg width="25" height="24" viewBox="0 0 25 24" fill="none" xmlns="http://www.w3.org/2000/svg">
<g clip-path="url(#clip0_119_2929)">
<path d="M22.3097 3.71128C21.1306 2.51723 19.5047 1.85962 17.7314 1.85962C14.6313 1.85962 13.0284 3.45478 12.2297 4.79292C12.2197 4.80951 12.2099 4.82615 12.2002 4.84274C12.1905 4.82615 12.1806 4.80951 12.1707 4.79292C11.372 3.45478 9.76907 1.85962 6.66895 1.85962C4.89571 1.85962 3.2698 2.51723 2.09066 3.71132C0.853914 4.96378 0.200195 6.67823 0.200195 8.66934C0.200195 12.8974 3.95868 15.7006 7.27466 18.1739C8.92696 19.4062 10.4876 20.5703 11.4699 21.7907C11.6478 22.0118 11.9164 22.1404 12.2002 22.1404C12.484 22.1404 12.7526 22.0118 12.9306 21.7908C13.4358 21.163 14.1381 20.4956 15.1408 19.6902C15.5444 19.366 15.6089 18.7759 15.2846 18.3722C14.9604 17.9686 14.3703 17.9041 13.9666 18.2283C13.2592 18.7965 12.6806 19.3104 12.2006 19.7988C11.1409 18.7184 9.79954 17.718 8.39568 16.6709C5.28834 14.3533 2.0752 11.9567 2.0752 8.66934C2.0752 5.76384 3.96421 3.73462 6.66895 3.73462C8.42765 3.73462 9.72627 4.39626 10.5286 5.70112C11.1657 6.73692 11.2648 7.81509 11.2654 7.82174C11.303 8.31014 11.7102 8.68931 12.2 8.68931C12.6899 8.68931 13.097 8.31426 13.1346 7.82587C13.1355 7.81509 13.2346 6.73692 13.8717 5.70112C14.6741 4.39626 15.9727 3.73462 17.7314 3.73462C20.4362 3.73462 22.3252 5.76384 22.3252 8.66934C22.3252 11.3899 20.1103 13.4992 17.7167 15.3733C17.3091 15.6924 17.2373 16.2817 17.5565 16.6894C17.8756 17.097 18.4649 17.1688 18.8726 16.8495C20.0112 15.958 21.4544 14.7533 22.5159 13.3386C23.6492 11.8281 24.2002 10.3008 24.2002 8.66934C24.2002 6.67823 23.5465 4.96378 22.3097 3.71128Z" fill="black"/>
</g>
<defs>
<clipPath id="clip0_119_2929">
<rect width="24" height="24" fill="white" transform="translate(0.200195)"/>
</clipPath>
</defs>
</svg>
