<svg width="50" height="50" viewBox="0 0 50 50" fill="none" xmlns="http://www.w3.org/2000/svg">
<path d="M48.9477 17.2393C48.8832 17.0149 48.777 16.7984 48.6278 16.601C48.5172 16.4549 48.3901 16.3287 48.2512 16.2232C47.8753 15.7577 47.4449 15.3339 46.9657 14.9634L29.2885 1.29993C29.2361 1.2593 29.1816 1.22151 29.1253 1.18645C26.5806 -0.395483 23.4191 -0.395483 20.8745 1.18645C20.8182 1.22141 20.7637 1.2593 20.7113 1.29993L3.03421 14.9634C1.13428 16.432 0 18.7421 0 21.1432V42.189C9.7673e-05 46.496 3.5047 50 7.81257 50H31.8359C32.9146 50 33.7891 49.1258 33.7891 48.0472C33.7891 46.9686 32.9147 46.0944 31.8359 46.0944H7.81257C5.65869 46.0944 3.90633 44.3423 3.90633 42.1888V21.1432C3.90633 19.9427 4.47352 18.7876 5.42339 18.0532L23.014 4.45657C24.247 3.72756 25.753 3.72756 26.986 4.45657L44.0295 17.6303L26.9939 30.5156C25.7555 31.2516 24.2401 31.2508 23.0022 30.5133L11.4244 21.8462C10.561 21.1997 9.33686 21.3757 8.69036 22.239C8.04386 23.1023 8.21977 24.3261 9.0832 24.9726L20.7351 33.695C20.7801 33.7287 20.8266 33.7605 20.8743 33.7903C22.1467 34.5814 23.5732 34.9768 24.9998 34.9768C26.4263 34.9768 27.8529 34.5813 29.1253 33.7903C29.1758 33.7588 29.2248 33.7251 29.2723 33.6893L46.0896 20.9693C46.0922 21.0271 46.0936 21.085 46.0936 21.1431V25.1996C46.0936 26.2782 46.9679 27.1525 48.0467 27.1525C49.1255 27.1525 49.9998 26.2783 49.9998 25.1996V21.1431C49.9999 19.7645 49.6258 18.4158 48.9477 17.2393Z" fill="white"/>
<path d="M49.4269 37.4199L43.6596 31.664C42.5249 30.5295 40.6784 30.5295 39.5447 31.6628L33.7764 37.4199C33.013 38.1819 33.0118 39.4182 33.774 40.1815C34.5361 40.9449 35.7727 40.9459 36.5361 40.1839L39.6484 37.0777V48.047C39.6484 49.1255 40.5228 49.9998 41.6016 49.9998C42.6804 49.9998 43.5548 49.1256 43.5548 48.047V37.0777L46.6671 40.1839C47.0483 40.5644 47.5476 40.7546 48.047 40.7546C48.5473 40.7546 49.0478 40.5634 49.4293 40.1814C50.1914 39.4182 50.1902 38.1818 49.4269 37.4199Z" fill="white"/>
</svg>
