<svg width="20" height="20" viewBox="0 0 20 20" fill="none" xmlns="http://www.w3.org/2000/svg">
<path d="M1.70051 4.93666C2.6125 4.20983 3.89973 3.61475 5.52645 3.16803C8.655 2.30889 12.183 2.21616 13.5546 2.21616C17.1086 2.21616 20 5.10756 20 8.66155V11.3924C20 14.9464 17.1086 17.8378 13.5546 17.8378C11.9159 17.8378 10.6851 17.3244 9.38211 16.7809C8.03461 16.2189 6.64129 15.6377 4.68168 15.6377C2.1002 15.6377 0 13.5374 0 10.956V8.22514C0 6.94237 0.572147 5.83596 1.70051 4.93666ZM2.02945 11.6146C1.88156 11.7717 1.63434 11.7791 1.47726 11.6312C1.21234 11.3818 0.979298 11.1039 0.78125 10.8046V10.956C0.78125 13.1067 2.53098 14.8564 4.68168 14.8564C6.7977 14.8564 8.26441 15.4682 9.68285 16.0599C10.9116 16.5724 12.0723 17.0565 13.5546 17.0565C16.5554 17.0565 19.0183 14.7107 19.2067 11.7566C18.1098 13.7517 15.9876 15.1069 13.5546 15.1069C11.9159 15.1069 10.6851 14.5935 9.38211 14.05C8.03461 13.4879 6.64129 12.9067 4.68168 12.9067C4.53609 12.9067 4.38902 12.8999 4.24449 12.8864C4.02969 12.8662 3.87188 12.6758 3.89199 12.461C3.91211 12.2462 4.10277 12.0885 4.31734 12.1085C4.43777 12.1198 4.56031 12.1255 4.68168 12.1255C6.7977 12.1255 8.26441 12.7373 9.68285 13.329C10.9116 13.8415 12.0723 14.3256 13.5546 14.3256C16.6779 14.3256 19.2188 11.7847 19.2188 8.66159C19.2188 5.53838 16.6779 2.99744 13.5546 2.99744C12.2147 2.99744 8.77024 3.08748 5.73332 3.92143C2.44738 4.82381 0.78125 6.27178 0.78125 8.22514C0.78125 9.29135 1.23016 10.3255 2.01281 11.0624C2.16988 11.2103 2.17734 11.4575 2.02945 11.6146Z" fill="#121212"/>
<path d="M2.35089 11.8638C2.44277 11.6686 2.67554 11.5849 2.87066 11.6767C2.87347 11.678 2.87718 11.6799 2.87996 11.6812C3.07288 11.7777 3.15109 12.0124 3.05464 12.2053C2.9862 12.3422 2.84824 12.4213 2.70492 12.4213C2.64703 12.4213 2.58828 12.4084 2.53288 12.3811C2.34136 12.2877 2.25984 12.0573 2.35089 11.8638Z" fill="#121212"/>
<path d="M10.7349 3.88871L10.755 3.88707C10.9704 3.87028 11.1584 4.03036 11.1755 4.24543C11.1927 4.46047 11.0322 4.64872 10.8172 4.6659L10.7972 4.66746C10.7866 4.66832 10.7761 4.66875 10.7657 4.66875C10.5641 4.66875 10.3931 4.51368 10.3767 4.30926C10.3595 4.09418 10.5199 3.90594 10.7349 3.88871Z" fill="#121212"/>
<path d="M1.80681 7.17276C2.19428 6.40698 3.05639 5.74518 4.36928 5.20581C5.43158 4.76936 6.59334 4.49366 7.38088 4.33917C7.85287 4.24663 8.34748 4.16397 8.851 4.09358C9.06455 4.06342 9.26205 4.21264 9.29197 4.42635C9.32186 4.64003 9.17287 4.83741 8.9592 4.86729C8.46975 4.93573 7.98932 5.016 7.53123 5.10585C4.84803 5.63206 3.01564 6.51397 2.50392 7.52538C2.39643 7.73792 2.34416 7.96678 2.34416 8.22507C2.34416 9.51417 3.39295 10.563 4.68209 10.563C5.98553 10.563 7.25127 10.776 8.55166 11.2142C9.11174 11.403 9.65557 11.6287 10.1815 11.8469C10.5293 11.9913 10.889 12.1406 11.246 12.2758C12.147 12.6173 12.8376 12.763 13.5551 12.763C15.8167 12.763 17.6567 10.9231 17.6567 8.66147C17.6567 6.39983 15.8167 4.55983 13.5551 4.55983C13.1138 4.55983 12.6659 4.56819 12.2238 4.58467C12.1488 4.58745 12.0737 4.59046 11.9985 4.59378C11.7831 4.60354 11.6005 4.43628 11.591 4.22073C11.5815 4.00522 11.7485 3.82276 11.964 3.81327C12.041 3.80987 12.1179 3.80678 12.1947 3.80393C12.6465 3.7871 13.1042 3.77858 13.5551 3.77858C16.2475 3.77858 18.438 5.96901 18.438 8.66147C18.438 11.3539 16.2476 13.5443 13.5551 13.5443C12.7373 13.5443 11.964 13.3834 10.9692 13.0064C10.6008 12.8668 10.2354 12.7151 9.88201 12.5685C9.36822 12.3553 8.83693 12.1348 8.30217 11.9545C7.0835 11.5438 5.89935 11.3442 4.68209 11.3442C2.96217 11.3442 1.56291 9.94499 1.56291 8.2251C1.56291 7.84143 1.64271 7.49721 1.80681 7.17276Z" fill="#121212"/>
<path d="M13.1804 5.33241C14.2724 5.33241 15.1609 6.13808 15.1609 7.12839C15.1609 8.1187 14.2724 8.92436 13.1804 8.92436C12.0883 8.92436 11.1999 8.1187 11.1999 7.12839C11.1999 6.13808 12.0883 5.33241 13.1804 5.33241ZM13.1804 8.14307C13.8417 8.14307 14.3796 7.68788 14.3796 7.12835C14.3796 6.56886 13.8417 6.11362 13.1804 6.11362C12.5191 6.11362 11.9811 6.56882 11.9811 7.12835C11.9811 7.68788 12.5191 8.14307 13.1804 8.14307Z" fill="#121212"/>
</svg>
