<svg width="60" height="60" viewBox="0 0 60 60" fill="none" xmlns="http://www.w3.org/2000/svg">
<g filter="url(#filter0_d_5_412)">
<rect x="10" y="6" width="40" height="39.9903" rx="19.9952" fill="white"/>
<rect x="10.5" y="6.5" width="39" height="38.9903" rx="19.4952" stroke="#B04D50"/>
</g>
<path d="M36.7397 21.4705C35.9536 20.6746 34.8697 20.2363 33.6875 20.2363C31.6208 20.2363 30.5522 21.2995 30.0197 22.1914C30.013 22.2024 30.0065 22.2135 30 22.2246C29.9935 22.2135 29.987 22.2024 29.9803 22.1914C29.4478 21.2995 28.3793 20.2363 26.3125 20.2363C25.1303 20.2363 24.0464 20.6746 23.2603 21.4705C22.4358 22.3053 22 23.448 22 24.775C22 27.5931 24.5057 29.4614 26.7163 31.1099C27.8178 31.9313 28.8583 32.7071 29.5131 33.5205C29.6318 33.6679 29.8108 33.7536 30 33.7536C30.1892 33.7536 30.3682 33.6679 30.4869 33.5206C30.8237 33.1022 31.2919 32.6573 31.9604 32.1205C32.2295 31.9044 32.2724 31.5111 32.0563 31.242C31.8402 30.973 31.4467 30.9301 31.1776 31.1462C30.706 31.5249 30.3203 31.8674 30.0003 32.1929C29.2938 31.4728 28.3996 30.806 27.4637 30.1082C25.3921 28.5634 23.25 26.9661 23.25 24.775C23.25 22.8385 24.5093 21.486 26.3125 21.486C27.485 21.486 28.3507 21.927 28.8856 22.7967C29.3103 23.4871 29.3764 24.2057 29.3768 24.2101C29.4019 24.5356 29.6733 24.7884 29.9998 24.7884C30.3264 24.7884 30.5978 24.5384 30.6229 24.2129C30.6236 24.2057 30.6896 23.4871 31.1143 22.7967C31.6493 21.927 32.515 21.486 33.6875 21.486C35.4907 21.486 36.75 22.8385 36.75 24.775C36.75 26.5883 35.2734 27.9941 33.6777 29.2432C33.4059 29.456 33.3581 29.8487 33.5709 30.1204C33.7836 30.3921 34.1765 30.44 34.4483 30.2272C35.2073 29.633 36.1694 28.83 36.8771 27.8871C37.6327 26.8804 38 25.8624 38 24.775C38 23.448 37.5642 22.3053 36.7397 21.4705Z" fill="#B04D50"/>
<defs>
<filter id="filter0_d_5_412" x="0" y="0" width="60" height="59.9904" filterUnits="userSpaceOnUse" color-interpolation-filters="sRGB">
<feFlood flood-opacity="0" result="BackgroundImageFix"/>
<feColorMatrix in="SourceAlpha" type="matrix" values="0 0 0 0 0 0 0 0 0 0 0 0 0 0 0 0 0 0 127 0" result="hardAlpha"/>
<feOffset dy="4"/>
<feGaussianBlur stdDeviation="5"/>
<feColorMatrix type="matrix" values="0 0 0 0 0 0 0 0 0 0 0 0 0 0 0 0 0 0 0.05 0"/>
<feBlend mode="normal" in2="BackgroundImageFix" result="effect1_dropShadow_5_412"/>
<feBlend mode="normal" in="SourceGraphic" in2="effect1_dropShadow_5_412" result="shape"/>
</filter>
</defs>
</svg>
