<svg width="25" height="24" viewBox="0 0 25 24" fill="none" xmlns="http://www.w3.org/2000/svg">
<g clip-path="url(#clip0_119_2933)">
<path d="M0.410242 5.4555C0.588272 5.2365 0.855461 5.10938 1.1377 5.10938H18.1188L18.1884 4.47038L18.1909 4.44984C18.5237 1.91306 20.7041 0 23.2627 0C23.7805 0 24.2002 0.419719 24.2002 0.9375C24.2002 1.45528 23.7805 1.875 23.2627 1.875C21.6452 1.875 20.2663 3.08198 20.0512 4.68412L18.9368 14.9217C19.9114 15.364 20.5908 16.3463 20.5908 17.4844C20.5908 17.4922 20.5907 17.5 20.5905 17.5078C20.5907 17.5156 20.5908 17.5234 20.5908 17.5312C20.5908 19.0821 19.3291 20.3438 17.7783 20.3438H17.3969C17.4922 20.6233 17.5439 20.9229 17.5439 21.2344C17.5439 22.7593 16.3033 24 14.7783 24C13.2533 24 12.0127 22.7593 12.0127 21.2344C12.0127 20.9229 12.0644 20.6233 12.1598 20.3438H8.11555C8.2109 20.6233 8.26265 20.9229 8.26265 21.2344C8.26265 22.7593 7.02201 24 5.49702 24C3.97204 24 2.7314 22.7593 2.7314 21.2344C2.7314 19.7094 3.97204 18.4688 5.49702 18.4688H17.7783C18.2953 18.4688 18.7158 18.0482 18.7158 17.5312C18.7158 17.5234 18.7159 17.5156 18.7161 17.5078C18.7159 17.5 18.7158 17.4922 18.7158 17.4844C18.7158 16.9674 18.2953 16.5469 17.7783 16.5469H5.80968C4.14548 16.5469 2.61824 15.5172 1.91877 13.9237C1.7107 13.4496 1.92632 12.8965 2.40041 12.6884C2.87451 12.4803 3.42754 12.696 3.63566 13.17C4.02993 14.0684 4.90359 14.6719 5.80968 14.6719H17.078L17.9147 6.98438H2.29091L2.74963 9.18356C2.85534 9.69042 2.53016 10.187 2.0233 10.2927C1.95876 10.3062 1.8944 10.3127 1.83093 10.3127C1.39631 10.3127 1.0064 10.0087 0.914148 9.56644L0.219976 6.23831C0.162321 5.96203 0.23221 5.6745 0.410242 5.4555ZM5.49707 20.3438C5.00596 20.3438 4.60645 20.7433 4.60645 21.2344C4.60645 21.7255 5.00596 22.125 5.49707 22.125C5.98818 22.125 6.3877 21.7255 6.3877 21.2344C6.3877 20.7433 5.98818 20.3438 5.49707 20.3438ZM14.7783 20.3438C14.2872 20.3438 13.8877 20.7433 13.8877 21.2344C13.8877 21.7255 14.2872 22.125 14.7783 22.125C15.2694 22.125 15.6689 21.7255 15.6689 21.2344C15.6689 20.7433 15.2694 20.3438 14.7783 20.3438Z" fill="black"/>
</g>
<defs>
<clipPath id="clip0_119_2933">
<rect width="24" height="24" fill="white" transform="matrix(-1 0 0 1 24.2002 0)"/>
</clipPath>
</defs>
</svg>
