<svg width="20" height="20" viewBox="0 0 20 20" fill="none" xmlns="http://www.w3.org/2000/svg">
<g clip-path="url(#clip0_102_164)">
<path d="M0.3125 11.3173C0.3125 9.95664 0.972187 8.65727 2.07719 7.84164C2.3025 7.67477 2.58187 7.58321 2.86344 7.58321C3.21594 7.58321 3.54625 7.72414 3.78875 7.96383C3.83406 7.92602 3.87531 7.88446 3.92219 7.84852C4.09562 7.71602 4.30375 7.63727 4.5175 7.60477L4.37969 6.08946C4.37656 6.05321 4.375 6.01664 4.375 5.98008C4.375 5.31321 4.9175 4.77071 5.58437 4.77071H5.66563C6.3325 4.77071 6.875 5.31321 6.875 5.98008C6.875 6.01664 6.87344 6.05321 6.87 6.08977L6.73156 7.61164C6.92969 7.64914 7.12125 7.72571 7.28312 7.84633C7.33906 7.88821 7.38875 7.93633 7.4425 7.98039C7.47031 7.95164 7.49969 7.92477 7.53 7.89883C7.51219 7.79477 7.5 7.68946 7.5 7.58321C7.5 7.18633 7.62375 6.80664 7.85313 6.48946C7.62375 6.17227 7.5 5.79289 7.5 5.39571C7.5 4.32571 8.40531 3.45852 9.48406 3.52414C9.68469 2.94914 10.1525 2.51571 10.7275 2.34852C11.1081 1.87383 11.6819 1.61039 12.2966 1.64914C12.5553 0.907581 13.2559 0.395706 14.0625 0.395706C14.7391 0.395706 15.355 0.757581 15.6869 1.33414C16.5144 1.36196 17.2297 1.94602 17.4347 2.74164C18.4022 3.10258 19.0625 4.03914 19.0625 5.08321C19.0625 5.92039 18.6506 6.68571 17.9691 7.14821C18.0719 7.38289 18.125 7.63664 18.125 7.89571C18.125 8.45821 17.875 8.98102 17.4459 9.33508C17.4819 9.48008 17.5 9.62602 17.5 9.77071C17.5 10.7282 16.7781 11.5207 15.85 11.6323L15.1588 13.5682C15.5128 13.8291 15.8144 14.1557 16.0466 14.5307L17.6837 14.167C17.7459 14.1526 17.81 14.1457 17.8744 14.1457C18.3572 14.1457 18.75 14.5385 18.75 15.0213V15.1451C18.75 15.2326 18.7331 15.3157 18.7091 15.3957H18.75C19.2669 15.3957 19.6875 15.8163 19.6875 16.3332C19.6875 16.8501 19.2669 17.2707 18.75 17.2707H18.7091C18.7331 17.3507 18.75 17.4338 18.75 17.5213V17.6451C18.75 18.1279 18.3572 18.5207 17.8744 18.5207C17.81 18.5207 17.7459 18.5138 17.6844 18.4998L16.0466 18.1357C15.44 19.1151 14.3591 19.7707 13.125 19.7707H13.0516C12.8778 19.7707 12.7019 19.7573 12.5291 19.7307L1.81312 18.0823C0.943748 17.9482 0.3125 17.2129 0.3125 16.3332C0.3125 15.6298 0.719688 15.0245 1.32594 14.7391C0.678438 13.9657 0.3125 12.9845 0.3125 11.9741V11.3173ZM4.30219 8.34508C3.36938 9.05821 2.8125 10.1941 2.8125 11.3845V12.5323C2.8125 13.1729 2.97219 13.8001 3.27312 14.3598L5.77906 13.9741C5.88219 13.5207 5.9375 13.0576 5.9375 12.5926V11.3238C5.9375 11.0088 5.90594 10.6941 5.85812 10.3823C5.78156 10.3888 5.70531 10.3957 5.625 10.3957C4.73406 10.3957 4.0625 9.99258 4.0625 9.45821C4.0625 9.16321 4.26656 8.90133 4.62 8.72946L4.57406 8.22383C4.47656 8.24352 4.38281 8.28289 4.30219 8.34508ZM5.66563 5.39571H5.58406C5.26188 5.39571 4.99969 5.65789 4.99969 5.98008C4.99969 5.99789 5.00031 6.01571 5.00219 6.03321L5.28594 9.15414L5.0475 9.23071C4.77375 9.31821 4.6875 9.43352 4.6875 9.45821C4.6875 9.53602 5.02 9.77071 5.625 9.77071C6.23 9.77071 6.5625 9.53602 6.5625 9.45821C6.5625 9.43352 6.47625 9.31821 6.2025 9.23039L5.96406 9.15383L6.24781 6.03321C6.24938 6.01539 6.25 5.99758 6.25 5.98008C6.25 5.65789 5.98781 5.39571 5.66563 5.39571ZM6.675 8.23414L6.63 8.72946C6.98344 8.90133 7.1875 9.16321 7.1875 9.45821C7.1875 9.80258 6.90656 10.0904 6.47 10.2529C6.52594 10.6076 6.5625 10.9657 6.5625 11.3238V12.5926C6.5625 13.022 6.52125 13.4507 6.44125 13.8723L8.28344 13.5888C8.38375 13.2454 8.4375 12.8913 8.4375 12.532V11.3841C8.4375 10.1957 7.86625 9.06008 6.90938 8.34696C6.83969 8.29508 6.75938 8.25696 6.675 8.23414ZM10.0522 13.3166C10.2219 12.8873 10.3125 12.4376 10.3125 11.9741V11.317C10.3125 10.1538 9.7475 9.04258 8.80156 8.34383C8.68281 8.25633 8.53531 8.20821 8.38656 8.20821C8.19781 8.20821 8.02406 8.28414 7.89688 8.41133C8.63375 9.21883 9.0625 10.2795 9.0625 11.3845V12.5323C9.0625 12.8545 9.02406 13.1732 8.95437 13.4857L10.0522 13.3166ZM10.0228 3.92727L9.96594 4.24883L9.64719 4.17789C9.55031 4.15633 9.46125 4.14571 9.375 4.14571C8.68563 4.14571 8.125 4.70633 8.125 5.39571C8.125 5.72414 8.2525 6.03477 8.48375 6.27039L8.69875 6.48946L8.48375 6.70852C8.2525 6.94414 8.125 7.25477 8.125 7.58321C8.125 7.59258 8.12687 7.60196 8.12687 7.61164C8.21156 7.59477 8.29781 7.58321 8.38656 7.58321C8.66813 7.58321 8.9475 7.67477 9.17281 7.84133C9.74156 8.26102 10.1894 8.81008 10.4931 9.42852C10.6116 9.05977 10.7359 8.70664 10.8641 8.37133C10.575 6.84446 9.50281 5.96071 9.49187 5.95164L9.6875 5.70821L9.88281 5.46414C9.92625 5.49883 10.7716 6.18914 11.2463 7.43446C11.8966 5.94133 12.5103 4.97539 12.5497 4.91414L13.0756 5.25227C13.0672 5.26508 12.5906 6.01477 12.0359 7.20821C12.9706 6.85633 14.0328 6.95352 14.0938 6.95977L14.0316 7.58164C13.5616 7.53446 12.2303 7.55727 11.6084 8.19196C11.3894 8.73039 11.1734 9.32071 10.9828 9.95321C11.9328 9.46602 13.0662 9.45821 13.125 9.45821V10.0832C13.1103 10.0832 11.7191 10.0926 10.8956 10.7473C10.9212 10.9354 10.9375 11.1254 10.9375 11.3173V11.9745C10.9375 12.3966 10.8725 12.8095 10.7519 13.2095L12.5291 12.936C12.6228 12.9216 12.7175 12.912 12.8125 12.9051C13.5019 12.9051 14.0625 12.3401 14.0625 11.646C14.0625 11.5004 14.0334 11.351 13.9766 11.2013L13.8853 10.9623L14.1019 10.8254C14.4684 10.5935 14.6875 10.1995 14.6875 9.77071C14.6875 9.52477 14.6153 9.28633 14.4788 9.08071L14.2841 8.78821L14.5972 8.62914C15.2313 8.30664 15.625 7.66664 15.625 6.95821C15.625 6.12664 15.0662 5.38602 14.2659 5.15696L14.0719 5.10133L14.0428 4.90164C13.9538 4.29258 13.4247 3.83321 12.8125 3.83321C12.8009 3.83321 12.7897 3.83571 12.7784 3.83727C12.7566 3.84039 12.7344 3.84321 12.7122 3.84477L12.4881 3.86289L12.4 3.65602C12.2028 3.19414 11.7516 2.89571 11.25 2.89571C10.6444 2.89571 10.1284 3.32946 10.0228 3.92727ZM15.4047 11.0207H15.625C16.3144 11.0207 16.875 10.4601 16.875 9.77071C16.875 9.62477 16.8459 9.47539 16.7891 9.32633L16.6975 9.08727L16.9141 8.95039C17.2809 8.71852 17.5 8.32446 17.5 7.89571C17.5 7.64977 17.4278 7.41133 17.2912 7.20571L17.0966 6.91321L17.4097 6.75414C18.0438 6.43164 18.4375 5.79164 18.4375 5.08321C18.4375 4.25164 17.8788 3.51102 17.0788 3.28196L16.8847 3.22633L16.8556 3.02664C16.7662 2.41758 16.2372 1.95821 15.625 1.95821C15.6131 1.95821 15.6016 1.96071 15.59 1.96227C15.5687 1.96508 15.5475 1.96789 15.5256 1.96977L15.3006 1.98852L15.2122 1.78071C15.0153 1.31914 14.5641 1.02071 14.0625 1.02071C13.4569 1.02071 12.9409 1.45446 12.8353 2.05227L12.7784 2.37383L12.4597 2.30289C12.3628 2.28133 12.2737 2.27071 12.1875 2.27071C12.0437 2.27071 11.9072 2.30227 11.7766 2.34789C12.2359 2.48227 12.6316 2.78727 12.8744 3.20914C13.7019 3.23696 14.4172 3.82102 14.6222 4.61664C15.5897 4.97758 16.25 5.91414 16.25 6.95821C16.25 7.79539 15.8381 8.56071 15.1566 9.02321C15.2594 9.25789 15.3125 9.51164 15.3125 9.77071C15.3125 10.3332 15.0625 10.856 14.6334 11.2104C14.6694 11.3554 14.6875 11.501 14.6875 11.6457C14.6875 12.1948 14.4513 12.6882 14.0772 13.0326C14.2628 13.0863 14.4412 13.156 14.6125 13.2388L15.4047 11.0207ZM18.125 15.1451V15.0213C18.125 14.8645 17.9731 14.7435 17.8197 14.7766L16.3325 15.1073C16.3688 15.2016 16.4012 15.2976 16.4291 15.3957H17.8744C18.0125 15.3957 18.125 15.2832 18.125 15.1451ZM19.0625 16.3332C19.0625 16.161 18.9222 16.0207 18.75 16.0207H17.8744H16.5469C16.5559 16.1238 16.5625 16.2276 16.5625 16.3332C16.5625 16.4388 16.5559 16.5426 16.5466 16.6457H17.8744H18.75C18.9222 16.6457 19.0625 16.5054 19.0625 16.3332ZM17.8203 17.8898C17.9684 17.9216 18.125 17.8016 18.125 17.6451V17.5213C18.125 17.3832 18.0125 17.2707 17.8744 17.2707H16.4294C16.4016 17.3688 16.3688 17.4648 16.3328 17.5591L17.8203 17.8898ZM0.9375 16.3332C0.9375 16.9023 1.34562 17.3779 1.90781 17.4645L12.6234 19.1129C12.7653 19.1348 12.9094 19.1457 13.0516 19.1457H13.125C14.6756 19.1457 15.9375 17.8838 15.9375 16.3332C15.9375 14.7826 14.6756 13.5207 13.125 13.5207H13.0516C12.9094 13.5207 12.7653 13.5316 12.6237 13.5532L1.90812 15.2016C1.34562 15.2885 0.9375 15.7641 0.9375 16.3332ZM0.9375 11.9741C0.9375 12.9354 1.32656 13.8654 2.00344 14.5548L2.62437 14.4591C2.33906 13.8598 2.1875 13.2026 2.1875 12.532V11.3841C2.1875 10.2735 2.61062 9.20758 3.3375 8.39883C3.21125 8.27977 3.04375 8.20821 2.86344 8.20821C2.71437 8.20821 2.56719 8.25633 2.44844 8.34446C1.5025 9.04258 0.9375 10.1541 0.9375 11.3173V11.9741Z" fill="#121212"/>
<path d="M13.4375 14.7707H12.8125V17.8957H13.4375V14.7707Z" fill="#121212"/>
<path d="M10.9375 14.7707H10.3125V17.8957H10.9375V14.7707Z" fill="#121212"/>
<path d="M8.4375 14.7707H7.8125V17.8957H8.4375V14.7707Z" fill="#121212"/>
<path d="M5.9375 15.3957H5.3125V17.2707H5.9375V15.3957Z" fill="#121212"/>
<path d="M3.4375 15.7082H2.8125V16.9582H3.4375V15.7082Z" fill="#121212"/>
</g>
<defs>
<clipPath id="clip0_102_164">
<rect width="20" height="19.9155" fill="white" transform="matrix(-1 0 0 1 20 0.0832062)"/>
</clipPath>
</defs>
</svg>
